# 3ds Max Wavefront OBJ Exporter v0.97b - (c)2007 guruware
# File Created: 15.04.2019 11:29:43

mtllib lvl3_palet.mtl

#
# object lvl3_palet
#

v  -0.5000 0.0924 0.5000
v  -0.5000 -0.0076 0.3000
v  -0.5000 -0.0076 0.5000
v  -0.5000 0.0924 0.3000
v  -0.5000 0.0924 0.1000
v  -0.5000 -0.0076 -0.1000
v  -0.5000 -0.0076 0.1000
v  -0.5000 0.0924 -0.1000
v  -0.5000 0.0924 -0.3000
v  -0.5000 -0.0076 -0.5000
v  -0.5000 -0.0076 -0.3000
v  -0.5000 0.0924 -0.5000
v  -0.5000 0.1924 0.5000
v  -0.5000 0.1924 -0.5000
v  -0.3000 0.1924 0.4000
v  -0.3000 0.0924 0.1000
v  -0.3000 0.0924 0.4000
v  -0.3000 0.0924 -0.4000
v  -0.3000 0.0924 -0.1000
v  -0.3000 0.1924 -0.4000
v  -0.1000 0.1924 0.4000
v  -0.1000 0.0924 0.1000
v  -0.1000 0.0924 0.4000
v  -0.1000 0.0924 -0.4000
v  -0.1000 0.0924 -0.1000
v  -0.1000 0.1924 -0.4000
v  0.2000 0.1924 0.4000
v  0.2000 0.0924 0.1000
v  0.2000 0.0924 0.4000
v  0.2000 0.0924 -0.4000
v  0.2000 0.0924 -0.1000
v  0.2000 0.1924 -0.4000
v  0.3000 0.0924 0.5000
v  0.3000 -0.0076 0.4000
v  0.3000 -0.0076 0.5000
v  0.3000 0.0924 0.4000
v  0.3000 0.0924 -0.4000
v  0.3000 -0.0076 -0.5000
v  0.3000 -0.0076 -0.4000
v  0.3000 0.0924 -0.5000
v  0.4000 0.0924 0.4000
v  0.4000 -0.0076 0.3000
v  0.4000 -0.0076 0.4000
v  0.4000 0.0924 0.3000
v  0.4000 0.0924 -0.3000
v  0.4000 -0.0076 -0.4000
v  0.4000 -0.0076 -0.3000
v  0.4000 0.0924 -0.4000
v  0.4000 0.1924 0.4000
v  0.4000 0.0924 -0.1000
v  0.4000 0.0924 0.1000
v  0.4000 0.1924 -0.4000
v  -0.4000 -0.0076 0.4000
v  -0.4000 -0.0076 0.3000
v  -0.4000 0.0924 0.4000
v  -0.4000 0.0924 0.3000
v  -0.4000 -0.0076 -0.3000
v  -0.4000 -0.0076 -0.4000
v  -0.4000 0.0924 -0.3000
v  -0.4000 0.0924 -0.4000
v  -0.4000 0.0924 0.1000
v  -0.4000 0.0924 -0.1000
v  -0.4000 0.1924 0.4000
v  -0.4000 0.1924 -0.4000
v  -0.3000 -0.0076 0.5000
v  -0.3000 -0.0076 0.4000
v  -0.3000 0.0924 0.5000
v  -0.3000 -0.0076 -0.4000
v  -0.3000 -0.0076 -0.5000
v  -0.3000 0.0924 -0.5000
v  -0.2000 0.0924 0.4000
v  -0.2000 0.0924 0.1000
v  -0.2000 0.1924 0.4000
v  -0.2000 0.0924 -0.1000
v  -0.2000 0.0924 -0.4000
v  -0.2000 0.1924 -0.4000
v  0.1000 0.0924 0.4000
v  0.1000 0.0924 0.1000
v  0.1000 0.1924 0.4000
v  0.1000 0.0924 -0.1000
v  0.1000 0.0924 -0.4000
v  0.1000 0.1924 -0.4000
v  0.3000 0.0924 0.1000
v  0.3000 0.1924 0.4000
v  0.3000 0.0924 -0.1000
v  0.3000 0.1924 -0.4000
v  0.5000 -0.0076 0.5000
v  0.5000 -0.0076 0.3000
v  0.5000 0.0924 0.5000
v  0.5000 0.0924 0.3000
v  0.5000 -0.0076 0.1000
v  0.5000 -0.0076 -0.1000
v  0.5000 0.0924 0.1000
v  0.5000 0.0924 -0.1000
v  0.5000 -0.0076 -0.3000
v  0.5000 -0.0076 -0.5000
v  0.5000 0.0924 -0.3000
v  0.5000 0.0924 -0.5000
v  0.5000 0.1924 0.5000
v  0.5000 0.1924 -0.5000
# 100 vertices

vn -1.0000 0.0000 -0.0000
vn 1.0000 0.0000 -0.0000
vn 0.0000 0.0000 1.0000
vn 0.0000 0.0000 -1.0000
vn 0.0000 -1.0000 -0.0000
vn 0.0000 1.0000 -0.0000
# 6 vertex normals

vt 0.0098 0.5000 0.0000
vt 0.8848 0.5000 0.0000
# 2 texture coords

o lvl3_palet
g lvl3_palet
usemtl palette
s 1
f 1/1/1 2/1/1 3/1/1 
f 4/1/1 2/1/1 1/1/1 
f 5/1/1 6/1/1 7/1/1 
f 8/1/1 6/1/1 5/1/1 
f 9/1/1 10/1/1 11/1/1 
f 12/1/1 10/1/1 9/1/1 
f 13/2/1 8/2/1 5/2/1 
f 13/2/1 4/2/1 1/2/1 
f 13/2/1 12/2/1 9/2/1 
f 13/2/1 9/2/1 8/2/1 
f 13/2/1 5/2/1 4/2/1 
f 14/2/1 12/2/1 13/2/1 
f 15/2/1 16/2/1 17/2/1 
f 15/2/1 18/2/1 19/2/1 
f 15/2/1 19/2/1 16/2/1 
f 20/2/1 18/2/1 15/2/1 
f 21/2/1 22/2/1 23/2/1 
f 21/2/1 24/2/1 25/2/1 
f 21/2/1 25/2/1 22/2/1 
f 26/2/1 24/2/1 21/2/1 
f 27/2/1 28/2/1 29/2/1 
f 27/2/1 30/2/1 31/2/1 
f 27/2/1 31/2/1 28/2/1 
f 32/2/1 30/2/1 27/2/1 
f 33/1/1 34/1/1 35/1/1 
f 36/1/1 34/1/1 33/1/1 
f 37/1/1 38/1/1 39/1/1 
f 40/1/1 38/1/1 37/1/1 
f 41/1/1 42/1/1 43/1/1 
f 44/1/1 42/1/1 41/1/1 
f 45/1/1 46/1/1 47/1/1 
f 48/1/1 46/1/1 45/1/1 
f 49/2/1 50/2/1 51/2/1 
f 49/2/1 44/2/1 41/2/1 
f 49/2/1 48/2/1 45/2/1 
f 49/2/1 45/2/1 50/2/1 
f 49/2/1 51/2/1 44/2/1 
f 52/2/1 48/2/1 49/2/1 
f 53/1/2 54/1/2 55/1/2 
f 55/1/2 54/1/2 56/1/2 
f 57/1/2 58/1/2 59/1/2 
f 59/1/2 58/1/2 60/1/2 
f 61/2/2 62/2/2 63/2/2 
f 55/2/2 56/2/2 63/2/2 
f 59/2/2 60/2/2 63/2/2 
f 62/2/2 59/2/2 63/2/2 
f 56/2/2 61/2/2 63/2/2 
f 63/2/2 60/2/2 64/2/2 
f 65/1/2 66/1/2 67/1/2 
f 67/1/2 66/1/2 17/1/2 
f 68/1/2 69/1/2 18/1/2 
f 18/1/2 69/1/2 70/1/2 
f 71/2/2 72/2/2 73/2/2 
f 74/2/2 75/2/2 73/2/2 
f 72/2/2 74/2/2 73/2/2 
f 73/2/2 75/2/2 76/2/2 
f 77/2/2 78/2/2 79/2/2 
f 80/2/2 81/2/2 79/2/2 
f 78/2/2 80/2/2 79/2/2 
f 79/2/2 81/2/2 82/2/2 
f 36/2/2 83/2/2 84/2/2 
f 85/2/2 37/2/2 84/2/2 
f 83/2/2 85/2/2 84/2/2 
f 84/2/2 37/2/2 86/2/2 
f 87/1/2 88/1/2 89/1/2 
f 89/1/2 88/1/2 90/1/2 
f 91/1/2 92/1/2 93/1/2 
f 93/1/2 92/1/2 94/1/2 
f 95/1/2 96/1/2 97/1/2 
f 97/1/2 96/1/2 98/1/2 
f 93/2/2 94/2/2 99/2/2 
f 89/2/2 90/2/2 99/2/2 
f 97/2/2 98/2/2 99/2/2 
f 94/2/2 97/2/2 99/2/2 
f 90/2/2 93/2/2 99/2/2 
f 99/2/2 98/2/2 100/2/2 
f 65/1/3 1/1/3 3/1/3 
f 67/2/3 13/2/3 1/2/3 
f 67/1/3 1/1/3 65/1/3 
f 33/2/3 13/2/3 67/2/3 
f 87/1/3 33/1/3 35/1/3 
f 89/2/3 13/2/3 33/2/3 
f 89/1/3 33/1/3 87/1/3 
f 99/2/3 13/2/3 89/2/3 
f 61/1/3 5/1/3 7/1/3 
f 16/1/3 61/1/3 7/1/3 
f 72/1/3 16/1/3 7/1/3 
f 22/1/3 72/1/3 7/1/3 
f 78/1/3 22/1/3 7/1/3 
f 28/1/3 78/1/3 7/1/3 
f 83/1/3 28/1/3 7/1/3 
f 51/1/3 83/1/3 7/1/3 
f 91/1/3 51/1/3 7/1/3 
f 93/1/3 51/1/3 91/1/3 
f 57/1/3 9/1/3 11/1/3 
f 59/1/3 9/1/3 57/1/3 
f 95/1/3 45/1/3 47/1/3 
f 97/1/3 45/1/3 95/1/3 
f 68/1/3 60/1/3 58/1/3 
f 18/2/3 64/2/3 60/2/3 
f 18/1/3 60/1/3 68/1/3 
f 20/2/3 64/2/3 18/2/3 
f 24/2/3 76/2/3 75/2/3 
f 26/2/3 76/2/3 24/2/3 
f 30/2/3 82/2/3 81/2/3 
f 32/2/3 82/2/3 30/2/3 
f 46/1/3 37/1/3 39/1/3 
f 48/2/3 86/2/3 37/2/3 
f 48/1/3 37/1/3 46/1/3 
f 52/2/3 86/2/3 48/2/3 
f 53/1/4 55/1/4 66/1/4 
f 55/2/4 63/2/4 17/2/4 
f 66/1/4 55/1/4 17/1/4 
f 17/2/4 63/2/4 15/2/4 
f 71/2/4 73/2/4 23/2/4 
f 23/2/4 73/2/4 21/2/4 
f 77/2/4 79/2/4 29/2/4 
f 29/2/4 79/2/4 27/2/4 
f 34/1/4 36/1/4 43/1/4 
f 36/2/4 84/2/4 41/2/4 
f 43/1/4 36/1/4 41/1/4 
f 41/2/4 84/2/4 49/2/4 
f 2/1/4 4/1/4 54/1/4 
f 54/1/4 4/1/4 56/1/4 
f 42/1/4 44/1/4 88/1/4 
f 88/1/4 44/1/4 90/1/4 
f 6/1/4 8/1/4 62/1/4 
f 6/1/4 62/1/4 19/1/4 
f 6/1/4 19/1/4 74/1/4 
f 6/1/4 74/1/4 25/1/4 
f 6/1/4 25/1/4 80/1/4 
f 6/1/4 80/1/4 31/1/4 
f 6/1/4 31/1/4 85/1/4 
f 6/1/4 85/1/4 50/1/4 
f 6/1/4 50/1/4 92/1/4 
f 92/1/4 50/1/4 94/1/4 
f 10/1/4 12/1/4 69/1/4 
f 12/2/4 14/2/4 70/2/4 
f 69/1/4 12/1/4 70/1/4 
f 70/2/4 14/2/4 40/2/4 
f 38/1/4 40/1/4 96/1/4 
f 40/2/4 14/2/4 98/2/4 
f 96/1/4 40/1/4 98/1/4 
f 98/2/4 14/2/4 100/2/4 
f 53/1/5 65/1/5 3/1/5 
f 66/1/5 65/1/5 53/1/5 
f 34/1/5 87/1/5 35/1/5 
f 43/1/5 87/1/5 34/1/5 
f 2/1/5 53/1/5 3/1/5 
f 54/1/5 53/1/5 2/1/5 
f 42/1/5 87/1/5 43/1/5 
f 88/1/5 87/1/5 42/1/5 
f 6/1/5 91/1/5 7/1/5 
f 92/1/5 91/1/5 6/1/5 
f 58/1/5 57/1/5 11/1/5 
f 46/1/5 95/1/5 47/1/5 
f 10/1/5 68/1/5 58/1/5 
f 10/1/5 58/1/5 11/1/5 
f 69/1/5 68/1/5 10/1/5 
f 38/1/5 46/1/5 39/1/5 
f 96/1/5 95/1/5 46/1/5 
f 96/1/5 46/1/5 38/1/5 
f 17/2/5 33/2/5 67/2/5 
f 71/2/5 33/2/5 17/2/5 
f 23/2/5 33/2/5 71/2/5 
f 77/2/5 33/2/5 23/2/5 
f 29/2/5 33/2/5 77/2/5 
f 36/2/5 33/2/5 29/2/5 
f 5/2/5 56/2/5 4/2/5 
f 61/2/5 56/2/5 5/2/5 
f 16/2/5 71/2/5 17/2/5 
f 72/2/5 71/2/5 16/2/5 
f 22/2/5 77/2/5 23/2/5 
f 78/2/5 77/2/5 22/2/5 
f 28/2/5 36/2/5 29/2/5 
f 83/2/5 36/2/5 28/2/5 
f 51/2/5 90/2/5 44/2/5 
f 93/2/5 90/2/5 51/2/5 
f 9/2/5 62/2/5 8/2/5 
f 59/2/5 62/2/5 9/2/5 
f 45/2/5 94/2/5 50/2/5 
f 97/2/5 94/2/5 45/2/5 
f 18/2/5 74/2/5 19/2/5 
f 75/2/5 74/2/5 18/2/5 
f 24/2/5 80/2/5 25/2/5 
f 81/2/5 80/2/5 24/2/5 
f 30/2/5 85/2/5 31/2/5 
f 37/2/5 85/2/5 30/2/5 
f 70/2/5 75/2/5 18/2/5 
f 70/2/5 81/2/5 24/2/5 
f 70/2/5 37/2/5 30/2/5 
f 70/2/5 30/2/5 81/2/5 
f 70/2/5 24/2/5 75/2/5 
f 40/2/5 37/2/5 70/2/5 
f 61/1/6 16/1/6 62/1/6 
f 62/1/6 16/1/6 19/1/6 
f 72/1/6 22/1/6 74/1/6 
f 74/1/6 22/1/6 25/1/6 
f 78/1/6 28/1/6 80/1/6 
f 80/1/6 28/1/6 31/1/6 
f 83/1/6 51/1/6 85/1/6 
f 85/1/6 51/1/6 50/1/6 
f 13/2/6 99/2/6 63/2/6 
f 63/2/6 99/2/6 15/2/6 
f 15/2/6 99/2/6 73/2/6 
f 73/2/6 99/2/6 21/2/6 
f 21/2/6 99/2/6 79/2/6 
f 79/2/6 99/2/6 27/2/6 
f 27/2/6 99/2/6 84/2/6 
f 84/2/6 99/2/6 49/2/6 
f 13/2/6 63/2/6 64/2/6 
f 15/2/6 73/2/6 20/2/6 
f 20/2/6 73/2/6 76/2/6 
f 21/2/6 79/2/6 26/2/6 
f 26/2/6 79/2/6 82/2/6 
f 27/2/6 84/2/6 32/2/6 
f 32/2/6 84/2/6 86/2/6 
f 49/2/6 99/2/6 52/2/6 
f 32/2/6 86/2/6 14/2/6 
f 86/2/6 52/2/6 14/2/6 
f 26/2/6 82/2/6 14/2/6 
f 13/2/6 64/2/6 14/2/6 
f 82/2/6 32/2/6 14/2/6 
f 20/2/6 76/2/6 14/2/6 
f 76/2/6 26/2/6 14/2/6 
f 64/2/6 20/2/6 14/2/6 
f 52/2/6 99/2/6 100/2/6 
f 14/2/6 52/2/6 100/2/6 
# 0 polygons - 228 triangles

