# 3ds Max Wavefront OBJ Exporter v0.97b - (c)2007 guruware
# File Created: 15.04.2019 11:26:47

mtllib lvl3_fire.mtl

#
# object lvl3_fire
#

v  -0.5000 0.3801 0.4000
v  -0.5000 0.2801 0.3000
v  -0.5000 0.2801 0.4000
v  -0.5000 0.3801 0.3000
v  -0.5000 0.2801 0.2000
v  -0.5000 0.3801 0.2000
v  -0.5000 0.2801 0.1000
v  -0.5000 0.3801 0.1000
v  -0.5000 0.2801 -0.1000
v  -0.5000 0.3801 -0.1000
v  -0.5000 0.2801 -0.2000
v  -0.5000 0.3801 -0.2000
v  -0.5000 0.2801 -0.3000
v  -0.5000 0.3801 -0.3000
v  -0.5000 0.2801 -0.4000
v  -0.5000 0.3801 -0.4000
v  -0.4000 0.0801 0.5000
v  -0.4000 -0.0199 -0.5000
v  -0.4000 -0.0199 0.5000
v  -0.4000 0.0801 -0.5000
v  -0.4000 0.2801 0.4000
v  -0.4000 0.1801 0.3000
v  -0.4000 0.1801 0.4000
v  -0.4000 0.2801 0.3000
v  -0.4000 0.1801 -0.3000
v  -0.4000 0.2801 0.2000
v  -0.4000 0.2801 0.1000
v  -0.4000 0.2801 -0.1000
v  -0.4000 0.2801 -0.2000
v  -0.4000 0.2801 -0.3000
v  -0.4000 0.1801 -0.4000
v  -0.4000 0.2801 -0.4000
v  -0.3000 0.1801 0.4000
v  -0.3000 0.0801 0.3000
v  -0.3000 0.0801 0.4000
v  -0.3000 0.1801 0.3000
v  -0.3000 0.0801 -0.3000
v  -0.3000 0.1801 -0.3000
v  -0.3000 0.0801 -0.4000
v  -0.3000 0.1801 -0.4000
v  -0.1000 0.1801 0.2000
v  -0.1000 0.0801 0.1000
v  -0.1000 0.0801 0.2000
v  -0.1000 0.1801 0.1000
v  -0.1000 0.0801 -0.0000
v  -0.1000 0.1801 -0.0000
v  -0.1000 0.0801 -0.1000
v  -0.1000 0.1801 -0.1000
v  -0.1000 0.0801 -0.2000
v  -0.1000 0.1801 -0.2000
v  0.2000 0.0801 0.5000
v  0.2000 -0.0199 0.4000
v  0.2000 -0.0199 0.5000
v  0.2000 0.0801 0.4000
v  0.2000 0.0801 -0.4000
v  0.2000 -0.0199 -0.5000
v  0.2000 -0.0199 -0.4000
v  0.2000 0.0801 -0.5000
v  0.2000 0.1801 0.3000
v  0.2000 0.0801 -0.3000
v  0.2000 0.0801 -0.2000
v  0.2000 0.0801 0.2000
v  0.2000 0.0801 0.3000
v  0.2000 0.1801 -0.3000
v  0.2000 0.2801 0.4000
v  0.2000 0.1801 0.4000
v  0.2000 0.2801 0.3000
v  0.2000 0.2801 -0.3000
v  0.2000 0.1801 -0.4000
v  0.2000 0.2801 -0.4000
v  0.3000 0.2801 0.3000
v  0.3000 0.1801 -0.3000
v  0.3000 0.1801 0.3000
v  0.3000 0.2801 -0.3000
v  0.3000 0.3801 0.4000
v  0.3000 0.2801 0.4000
v  0.3000 0.3801 0.3000
v  0.3000 0.3801 -0.3000
v  0.3000 0.2801 -0.4000
v  0.3000 0.3801 -0.4000
v  0.4000 0.3801 0.3000
v  0.4000 0.2801 0.2000
v  0.4000 0.2801 0.3000
v  0.4000 0.3801 0.2000
v  0.4000 0.2801 0.1000
v  0.4000 0.3801 0.1000
v  0.4000 0.2801 -0.1000
v  0.4000 0.3801 -0.1000
v  0.4000 0.2801 -0.2000
v  0.4000 0.3801 -0.2000
v  0.4000 0.2801 -0.3000
v  0.4000 0.3801 -0.3000
v  -0.4000 0.3801 0.3000
v  -0.4000 0.3801 0.2000
v  -0.4000 0.3801 0.1000
v  -0.4000 0.3801 -0.1000
v  -0.4000 0.3801 -0.2000
v  -0.4000 0.3801 -0.3000
v  -0.3000 0.2801 0.3000
v  -0.3000 0.2801 -0.3000
v  -0.3000 0.2801 0.4000
v  -0.3000 0.3801 0.4000
v  -0.3000 0.3801 0.3000
v  -0.3000 0.2801 -0.4000
v  -0.3000 0.3801 -0.3000
v  -0.3000 0.3801 -0.4000
v  -0.2000 -0.0199 0.5000
v  -0.2000 -0.0199 0.4000
v  -0.2000 0.0801 0.5000
v  -0.2000 0.0801 0.4000
v  -0.2000 -0.0199 -0.4000
v  -0.2000 -0.0199 -0.5000
v  -0.2000 0.0801 -0.4000
v  -0.2000 0.0801 -0.5000
v  -0.2000 0.0801 -0.2000
v  -0.2000 0.0801 -0.3000
v  -0.2000 0.1801 0.3000
v  -0.2000 0.0801 0.3000
v  -0.2000 0.0801 0.2000
v  -0.2000 0.0801 -0.0000
v  -0.2000 0.0801 0.1000
v  -0.2000 0.1801 -0.3000
v  -0.2000 0.1801 0.4000
v  -0.2000 0.2801 0.4000
v  -0.2000 0.2801 0.3000
v  -0.2000 0.1801 -0.4000
v  -0.2000 0.2801 -0.3000
v  -0.2000 0.2801 -0.4000
v  0.1000 0.0801 0.2000
v  0.1000 0.0801 0.1000
v  0.1000 0.1801 0.2000
v  0.1000 0.0801 -0.0000
v  0.1000 0.1801 0.1000
v  0.1000 0.0801 -0.1000
v  0.1000 0.1801 -0.0000
v  0.1000 0.0801 -0.2000
v  0.1000 0.1801 -0.1000
v  0.1000 0.1801 -0.2000
v  0.3000 0.0801 0.4000
v  0.3000 0.0801 0.3000
v  0.3000 0.1801 0.4000
v  0.3000 0.0801 -0.3000
v  0.3000 0.0801 -0.4000
v  0.3000 0.1801 -0.4000
v  0.4000 -0.0199 0.5000
v  0.4000 -0.0199 -0.5000
v  0.4000 0.0801 0.5000
v  0.4000 0.0801 -0.5000
v  0.4000 0.1801 0.4000
v  0.4000 0.1801 0.3000
v  0.4000 0.2801 0.4000
v  0.4000 0.1801 -0.3000
v  0.4000 0.1801 -0.4000
v  0.4000 0.2801 -0.4000
v  0.5000 0.2801 0.4000
v  0.5000 0.2801 0.3000
v  0.5000 0.3801 0.4000
v  0.5000 0.2801 0.2000
v  0.5000 0.3801 0.3000
v  0.5000 0.2801 0.1000
v  0.5000 0.3801 0.2000
v  0.5000 0.2801 -0.1000
v  0.5000 0.3801 0.1000
v  0.5000 0.2801 -0.2000
v  0.5000 0.3801 -0.1000
v  0.5000 0.2801 -0.3000
v  0.5000 0.3801 -0.2000
v  0.5000 0.2801 -0.4000
v  0.5000 0.3801 -0.3000
v  0.5000 0.3801 -0.4000
v  -0.4000 0.3801 0.4000
v  -0.1000 -0.0199 0.4000
v  -0.1000 0.0801 0.4000
v  -0.1000 0.1801 0.4000
v  0.1000 -0.0199 0.4000
v  0.1000 0.0801 0.4000
v  0.1000 0.1801 0.4000
v  0.4000 0.3801 0.4000
v  0.0000 0.0801 0.2000
v  0.0000 0.1801 0.2000
v  -0.1000 0.0801 -0.3000
v  -0.1000 0.1801 -0.3000
v  0.0000 0.0801 -0.3000
v  0.1000 0.0801 -0.3000
v  0.1000 0.1801 -0.3000
v  -0.1000 0.0801 0.3000
v  -0.1000 0.1801 0.3000
v  0.1000 0.0801 0.3000
v  0.1000 0.1801 0.3000
v  0.0000 0.0801 -0.2000
v  0.0000 0.1801 -0.2000
v  -0.4000 0.3801 -0.4000
v  -0.1000 -0.0199 -0.4000
v  -0.1000 0.0801 -0.4000
v  -0.1000 0.1801 -0.4000
v  0.1000 -0.0199 -0.4000
v  0.1000 0.0801 -0.4000
v  0.1000 0.1801 -0.4000
v  0.4000 0.3801 -0.4000
v  -0.3000 -0.0199 0.4000
v  0.3000 -0.0199 0.4000
v  -0.2000 -0.0199 0.3000
v  -0.1000 -0.0199 0.3000
v  0.1000 -0.0199 0.3000
v  0.2000 -0.0199 0.3000
v  -0.2000 -0.0199 0.2000
v  -0.1000 -0.0199 0.2000
v  0.1000 -0.0199 0.2000
v  0.2000 -0.0199 0.2000
v  -0.2000 -0.0199 0.1000
v  -0.1000 -0.0199 0.1000
v  -0.2000 -0.0199 -0.0000
v  -0.1000 -0.0199 -0.0000
v  -0.2000 -0.0199 -0.2000
v  0.0000 -0.0199 -0.2000
v  0.1000 -0.0199 -0.2000
v  0.2000 -0.0199 -0.2000
v  -0.2000 -0.0199 -0.3000
v  -0.1000 -0.0199 -0.3000
v  0.0000 -0.0199 -0.3000
v  0.1000 -0.0199 -0.3000
v  0.2000 -0.0199 -0.3000
v  -0.3000 -0.0199 -0.4000
v  0.3000 -0.0199 -0.4000
v  0.0000 0.1801 0.1000
v  0.0000 0.1801 -0.0000
v  0.0000 0.1801 -0.1000
# 227 vertices

vn -1.0000 0.0000 -0.0000
vn 1.0000 0.0000 -0.0000
vn 0.0000 0.0000 1.0000
vn 0.0000 0.0000 -1.0000
vn 0.0000 -1.0000 -0.0000
vn 0.0000 1.0000 -0.0000
# 6 vertex normals

vt 0.7480 0.5000 0.0000
vt 0.4277 0.5000 0.0000
vt 0.1465 0.5000 0.0000
vt 0.1738 0.5000 0.0000
vt 0.9746 0.5000 0.0000
vt 0.4355 0.5000 0.0000
vt 0.9941 0.5000 0.0000
# 7 texture coords

o lvl3_fire
g lvl3_fire
usemtl palette
s 1
f 1/1/1 2/1/1 3/1/1 
f 4/2/1 5/2/1 2/2/1 
f 4/1/1 2/1/1 1/1/1 
f 6/3/1 7/3/1 5/3/1 
f 6/2/1 5/2/1 4/2/1 
f 8/2/1 9/2/1 7/2/1 
f 8/3/1 7/3/1 6/3/1 
f 10/3/1 11/3/1 9/3/1 
f 10/2/1 9/2/1 8/2/1 
f 12/2/1 13/2/1 11/2/1 
f 12/3/1 11/3/1 10/3/1 
f 14/1/1 15/1/1 13/1/1 
f 14/2/1 13/2/1 12/2/1 
f 16/1/1 15/1/1 14/1/1 
f 17/4/1 18/4/1 19/4/1 
f 20/4/1 18/4/1 17/4/1 
f 21/1/1 22/1/1 23/1/1 
f 24/5/1 25/5/1 22/5/1 
f 24/1/1 22/1/1 21/1/1 
f 26/5/1 25/5/1 24/5/1 
f 27/5/1 25/5/1 26/5/1 
f 28/5/1 25/5/1 27/5/1 
f 29/5/1 25/5/1 28/5/1 
f 30/1/1 31/1/1 25/1/1 
f 30/5/1 25/5/1 29/5/1 
f 32/1/1 31/1/1 30/1/1 
f 33/1/1 34/1/1 35/1/1 
f 36/5/1 37/5/1 34/5/1 
f 36/1/1 34/1/1 33/1/1 
f 38/1/1 39/1/1 37/1/1 
f 38/5/1 37/5/1 36/5/1 
f 40/1/1 39/1/1 38/1/1 
f 41/2/1 42/2/1 43/2/1 
f 44/6/1 45/6/1 42/6/1 
f 44/2/1 42/2/1 41/2/1 
f 46/3/1 47/3/1 45/3/1 
f 46/6/1 45/6/1 44/6/1 
f 48/6/1 49/6/1 47/6/1 
f 48/3/1 47/3/1 46/3/1 
f 50/6/1 49/6/1 48/6/1 
f 51/4/1 52/4/1 53/4/1 
f 54/4/1 52/4/1 51/4/1 
f 55/4/1 56/4/1 57/4/1 
f 58/4/1 56/4/1 55/4/1 
f 59/5/1 60/5/1 61/5/1 
f 59/5/1 62/5/1 63/5/1 
f 59/5/1 61/5/1 62/5/1 
f 64/5/1 60/5/1 59/5/1 
f 65/2/1 59/2/1 66/2/1 
f 67/2/1 59/2/1 65/2/1 
f 68/2/1 69/2/1 64/2/1 
f 70/2/1 69/2/1 68/2/1 
f 71/5/1 72/5/1 73/5/1 
f 74/5/1 72/5/1 71/5/1 
f 75/3/1 71/3/1 76/3/1 
f 77/3/1 71/3/1 75/3/1 
f 78/3/1 79/3/1 74/3/1 
f 80/3/1 79/3/1 78/3/1 
f 81/2/1 82/2/1 83/2/1 
f 84/3/1 85/3/1 82/3/1 
f 84/2/1 82/2/1 81/2/1 
f 86/2/1 87/2/1 85/2/1 
f 86/3/1 85/3/1 84/3/1 
f 88/3/1 89/3/1 87/3/1 
f 88/2/1 87/2/1 86/2/1 
f 90/2/1 91/2/1 89/2/1 
f 90/3/1 89/3/1 88/3/1 
f 92/2/1 91/2/1 90/2/1 
f 24/2/2 26/2/2 93/2/2 
f 26/3/2 27/3/2 94/3/2 
f 93/2/2 26/2/2 94/2/2 
f 27/2/2 28/2/2 95/2/2 
f 94/3/2 27/3/2 95/3/2 
f 28/3/2 29/3/2 96/3/2 
f 95/2/2 28/2/2 96/2/2 
f 29/2/2 30/2/2 97/2/2 
f 96/3/2 29/3/2 97/3/2 
f 97/2/2 30/2/2 98/2/2 
f 36/5/2 38/5/2 99/5/2 
f 99/5/2 38/5/2 100/5/2 
f 101/3/2 99/3/2 102/3/2 
f 102/3/2 99/3/2 103/3/2 
f 100/3/2 104/3/2 105/3/2 
f 105/3/2 104/3/2 106/3/2 
f 107/4/2 108/4/2 109/4/2 
f 109/4/2 108/4/2 110/4/2 
f 111/4/2 112/4/2 113/4/2 
f 113/4/2 112/4/2 114/4/2 
f 115/5/2 116/5/2 117/5/2 
f 118/5/2 119/5/2 117/5/2 
f 120/5/2 115/5/2 117/5/2 
f 121/5/2 120/5/2 117/5/2 
f 119/5/2 121/5/2 117/5/2 
f 117/5/2 116/5/2 122/5/2 
f 123/2/2 117/2/2 124/2/2 
f 124/2/2 117/2/2 125/2/2 
f 122/2/2 126/2/2 127/2/2 
f 127/2/2 126/2/2 128/2/2 
f 129/3/2 130/3/2 131/3/2 
f 130/6/2 132/6/2 133/6/2 
f 131/3/2 130/3/2 133/3/2 
f 132/2/2 134/2/2 135/2/2 
f 133/6/2 132/6/2 135/6/2 
f 134/3/2 136/3/2 137/3/2 
f 135/2/2 134/2/2 137/2/2 
f 137/3/2 136/3/2 138/3/2 
f 139/1/2 140/1/2 141/1/2 
f 140/5/2 142/5/2 73/5/2 
f 141/1/2 140/1/2 73/1/2 
f 142/1/2 143/1/2 72/1/2 
f 73/5/2 142/5/2 72/5/2 
f 72/1/2 143/1/2 144/1/2 
f 145/4/2 146/4/2 147/4/2 
f 147/4/2 146/4/2 148/4/2 
f 149/1/2 150/1/2 151/1/2 
f 150/5/2 152/5/2 83/5/2 
f 151/1/2 150/1/2 83/1/2 
f 83/5/2 152/5/2 82/5/2 
f 82/5/2 152/5/2 85/5/2 
f 85/5/2 152/5/2 87/5/2 
f 87/5/2 152/5/2 89/5/2 
f 152/1/2 153/1/2 91/1/2 
f 89/5/2 152/5/2 91/5/2 
f 91/1/2 153/1/2 154/1/2 
f 155/1/2 156/1/2 157/1/2 
f 156/2/2 158/2/2 159/2/2 
f 157/1/2 156/1/2 159/1/2 
f 158/3/2 160/3/2 161/3/2 
f 159/2/2 158/2/2 161/2/2 
f 160/2/2 162/2/2 163/2/2 
f 161/3/2 160/3/2 163/3/2 
f 162/3/2 164/3/2 165/3/2 
f 163/2/2 162/2/2 165/2/2 
f 164/2/2 166/2/2 167/2/2 
f 165/3/2 164/3/2 167/3/2 
f 166/1/2 168/1/2 169/1/2 
f 167/2/2 166/2/2 169/2/2 
f 169/1/2 168/1/2 170/1/2 
f 107/4/3 17/4/3 19/4/3 
f 109/4/3 17/4/3 107/4/3 
f 145/4/3 51/4/3 53/4/3 
f 147/4/3 51/4/3 145/4/3 
f 21/1/3 1/1/3 3/1/3 
f 171/1/3 1/1/3 21/1/3 
f 33/1/3 21/1/3 23/1/3 
f 101/3/3 171/3/3 21/3/3 
f 101/1/3 21/1/3 33/1/3 
f 102/3/3 171/3/3 101/3/3 
f 110/1/3 33/1/3 35/1/3 
f 123/2/3 101/2/3 33/2/3 
f 123/1/3 33/1/3 110/1/3 
f 124/2/3 101/2/3 123/2/3 
f 172/1/3 110/1/3 108/1/3 
f 173/3/3 123/3/3 110/3/3 
f 173/1/3 110/1/3 172/1/3 
f 174/3/3 123/3/3 173/3/3 
f 175/3/3 173/3/3 172/3/3 
f 176/2/3 174/2/3 173/2/3 
f 176/3/3 173/3/3 175/3/3 
f 177/2/3 174/2/3 176/2/3 
f 52/1/3 176/1/3 175/1/3 
f 54/3/3 177/3/3 176/3/3 
f 54/1/3 176/1/3 52/1/3 
f 66/3/3 177/3/3 54/3/3 
f 139/1/3 66/1/3 54/1/3 
f 141/2/3 65/2/3 66/2/3 
f 141/1/3 66/1/3 139/1/3 
f 76/2/3 65/2/3 141/2/3 
f 149/1/3 76/1/3 141/1/3 
f 151/3/3 75/3/3 76/3/3 
f 151/1/3 76/1/3 149/1/3 
f 178/3/3 75/3/3 151/3/3 
f 155/1/3 178/1/3 151/1/3 
f 157/1/3 178/1/3 155/1/3 
f 179/2/3 41/2/3 43/2/3 
f 180/2/3 41/2/3 179/2/3 
f 129/3/3 180/3/3 179/3/3 
f 131/3/3 180/3/3 129/3/3 
f 100/3/3 98/3/3 30/3/3 
f 105/3/3 98/3/3 100/3/3 
f 122/2/3 100/2/3 38/2/3 
f 127/2/3 100/2/3 122/2/3 
f 181/3/3 122/3/3 116/3/3 
f 182/3/3 122/3/3 181/3/3 
f 183/2/3 182/2/3 181/2/3 
f 184/2/3 182/2/3 183/2/3 
f 185/2/3 182/2/3 184/2/3 
f 60/3/3 185/3/3 184/3/3 
f 64/3/3 185/3/3 60/3/3 
f 72/2/3 68/2/3 64/2/3 
f 74/2/3 68/2/3 72/2/3 
f 91/3/3 78/3/3 74/3/3 
f 92/3/3 78/3/3 91/3/3 
f 24/3/4 93/3/4 99/3/4 
f 99/3/4 93/3/4 103/3/4 
f 36/2/4 99/2/4 117/2/4 
f 117/2/4 99/2/4 125/2/4 
f 118/3/4 117/3/4 186/3/4 
f 186/3/4 117/3/4 187/3/4 
f 186/2/4 187/2/4 188/2/4 
f 188/2/4 187/2/4 189/2/4 
f 188/3/4 189/3/4 63/3/4 
f 63/3/4 189/3/4 59/3/4 
f 59/2/4 67/2/4 73/2/4 
f 73/2/4 67/2/4 71/2/4 
f 71/3/4 77/3/4 83/3/4 
f 83/3/4 77/3/4 81/3/4 
f 49/6/4 50/6/4 190/6/4 
f 190/6/4 50/6/4 191/6/4 
f 190/3/4 191/3/4 136/3/4 
f 136/3/4 191/3/4 138/3/4 
f 15/1/4 16/1/4 32/1/4 
f 32/1/4 16/1/4 192/1/4 
f 31/1/4 32/1/4 40/1/4 
f 32/3/4 192/3/4 104/3/4 
f 40/1/4 32/1/4 104/1/4 
f 104/3/4 192/3/4 106/3/4 
f 39/1/4 40/1/4 113/1/4 
f 40/2/4 104/2/4 126/2/4 
f 113/1/4 40/1/4 126/1/4 
f 126/2/4 104/2/4 128/2/4 
f 111/1/4 113/1/4 193/1/4 
f 113/3/4 126/3/4 194/3/4 
f 193/1/4 113/1/4 194/1/4 
f 194/3/4 126/3/4 195/3/4 
f 193/3/4 194/3/4 196/3/4 
f 194/2/4 195/2/4 197/2/4 
f 196/3/4 194/3/4 197/3/4 
f 197/2/4 195/2/4 198/2/4 
f 196/1/4 197/1/4 57/1/4 
f 197/3/4 198/3/4 55/3/4 
f 57/1/4 197/1/4 55/1/4 
f 55/3/4 198/3/4 69/3/4 
f 55/1/4 69/1/4 143/1/4 
f 69/2/4 70/2/4 144/2/4 
f 143/1/4 69/1/4 144/1/4 
f 144/2/4 70/2/4 79/2/4 
f 144/1/4 79/1/4 153/1/4 
f 79/3/4 80/3/4 154/3/4 
f 153/1/4 79/1/4 154/1/4 
f 154/3/4 80/3/4 199/3/4 
f 154/1/4 199/1/4 168/1/4 
f 168/1/4 199/1/4 170/1/4 
f 18/4/4 20/4/4 112/4/4 
f 112/4/4 20/4/4 114/4/4 
f 56/4/4 58/4/4 146/4/4 
f 146/4/4 58/4/4 148/4/4 
f 200/4/5 107/4/5 19/4/5 
f 108/4/5 107/4/5 200/4/5 
f 52/4/5 145/4/5 53/4/5 
f 201/4/5 145/4/5 52/4/5 
f 202/3/5 108/3/5 200/3/5 
f 202/1/5 172/1/5 108/1/5 
f 203/3/5 175/3/5 172/3/5 
f 203/1/5 172/1/5 202/1/5 
f 204/1/5 52/1/5 175/1/5 
f 204/3/5 175/3/5 203/3/5 
f 205/3/5 201/3/5 52/3/5 
f 205/1/5 52/1/5 204/1/5 
f 206/3/5 202/3/5 200/3/5 
f 206/7/5 203/7/5 202/7/5 
f 207/5/5 204/5/5 203/5/5 
f 207/7/5 203/7/5 206/7/5 
f 208/7/5 205/7/5 204/7/5 
f 208/5/5 204/5/5 207/5/5 
f 209/3/5 201/3/5 205/3/5 
f 209/7/5 205/7/5 208/7/5 
f 210/5/5 208/5/5 207/5/5 
f 210/3/5 206/3/5 200/3/5 
f 210/5/5 209/5/5 208/5/5 
f 210/5/5 207/5/5 206/5/5 
f 211/5/5 209/5/5 210/5/5 
f 212/3/5 210/3/5 200/3/5 
f 212/7/5 211/7/5 210/7/5 
f 213/5/5 209/5/5 211/5/5 
f 213/7/5 211/7/5 212/7/5 
f 214/3/5 212/3/5 200/3/5 
f 214/5/5 213/5/5 212/5/5 
f 215/5/5 209/5/5 213/5/5 
f 215/5/5 213/5/5 214/5/5 
f 216/5/5 209/5/5 215/5/5 
f 217/3/5 201/3/5 209/3/5 
f 217/5/5 209/5/5 216/5/5 
f 218/3/5 214/3/5 200/3/5 
f 218/7/5 215/7/5 214/7/5 
f 219/7/5 215/7/5 218/7/5 
f 220/5/5 216/5/5 215/5/5 
f 220/7/5 215/7/5 219/7/5 
f 221/7/5 217/7/5 216/7/5 
f 221/5/5 216/5/5 220/5/5 
f 222/3/5 201/3/5 217/3/5 
f 222/7/5 217/7/5 221/7/5 
f 223/4/5 200/4/5 19/4/5 
f 223/3/5 218/3/5 200/3/5 
f 111/1/5 219/1/5 218/1/5 
f 111/3/5 218/3/5 223/3/5 
f 193/3/5 221/3/5 220/3/5 
f 193/1/5 219/1/5 111/1/5 
f 193/3/5 220/3/5 219/3/5 
f 196/1/5 222/1/5 221/1/5 
f 196/3/5 221/3/5 193/3/5 
f 57/3/5 201/3/5 222/3/5 
f 57/1/5 222/1/5 196/1/5 
f 224/4/5 145/4/5 201/4/5 
f 224/3/5 201/3/5 57/3/5 
f 18/4/5 223/4/5 19/4/5 
f 18/4/5 111/4/5 223/4/5 
f 112/4/5 111/4/5 18/4/5 
f 56/4/5 224/4/5 57/4/5 
f 146/4/5 145/4/5 224/4/5 
f 146/4/5 224/4/5 56/4/5 
f 22/1/5 33/1/5 23/1/5 
f 36/1/5 33/1/5 22/1/5 
f 73/1/5 149/1/5 141/1/5 
f 150/1/5 149/1/5 73/1/5 
f 25/5/5 36/5/5 22/5/5 
f 38/5/5 36/5/5 25/5/5 
f 72/5/5 150/5/5 73/5/5 
f 152/5/5 150/5/5 72/5/5 
f 31/1/5 38/1/5 25/1/5 
f 40/1/5 38/1/5 31/1/5 
f 144/1/5 152/1/5 72/1/5 
f 153/1/5 152/1/5 144/1/5 
f 2/1/5 21/1/5 3/1/5 
f 24/1/5 21/1/5 2/1/5 
f 83/1/5 155/1/5 151/1/5 
f 156/1/5 155/1/5 83/1/5 
f 5/2/5 24/2/5 2/2/5 
f 26/2/5 24/2/5 5/2/5 
f 82/2/5 156/2/5 83/2/5 
f 158/2/5 156/2/5 82/2/5 
f 7/3/5 26/3/5 5/3/5 
f 27/3/5 26/3/5 7/3/5 
f 85/3/5 158/3/5 82/3/5 
f 160/3/5 158/3/5 85/3/5 
f 9/2/5 27/2/5 7/2/5 
f 28/2/5 27/2/5 9/2/5 
f 87/2/5 160/2/5 85/2/5 
f 162/2/5 160/2/5 87/2/5 
f 11/3/5 28/3/5 9/3/5 
f 29/3/5 28/3/5 11/3/5 
f 89/3/5 162/3/5 87/3/5 
f 164/3/5 162/3/5 89/3/5 
f 13/2/5 29/2/5 11/2/5 
f 30/2/5 29/2/5 13/2/5 
f 91/2/5 164/2/5 89/2/5 
f 166/2/5 164/2/5 91/2/5 
f 15/1/5 30/1/5 13/1/5 
f 32/1/5 30/1/5 15/1/5 
f 154/1/5 166/1/5 91/1/5 
f 168/1/5 166/1/5 154/1/5 
f 17/4/6 109/4/6 35/4/6 
f 35/4/6 109/4/6 110/4/6 
f 51/4/6 147/4/6 54/4/6 
f 54/4/6 147/4/6 139/4/6 
f 17/4/6 35/4/6 34/4/6 
f 139/4/6 147/4/6 140/4/6 
f 118/7/6 186/7/6 119/7/6 
f 186/5/6 188/5/6 43/5/6 
f 119/7/6 186/7/6 43/7/6 
f 43/5/6 188/5/6 179/5/6 
f 188/7/6 63/7/6 129/7/6 
f 179/5/6 188/5/6 129/5/6 
f 129/7/6 63/7/6 62/7/6 
f 119/5/6 43/5/6 121/5/6 
f 121/5/6 43/5/6 42/5/6 
f 129/5/6 62/5/6 130/5/6 
f 121/7/6 42/7/6 120/7/6 
f 120/7/6 42/7/6 45/7/6 
f 130/5/6 62/5/6 132/5/6 
f 120/5/6 45/5/6 47/5/6 
f 132/5/6 62/5/6 134/5/6 
f 120/5/6 47/5/6 115/5/6 
f 115/5/6 47/5/6 49/5/6 
f 134/5/6 62/5/6 136/5/6 
f 136/5/6 62/5/6 61/5/6 
f 17/4/6 34/4/6 37/4/6 
f 49/7/6 190/7/6 116/7/6 
f 115/7/6 49/7/6 116/7/6 
f 116/7/6 190/7/6 181/7/6 
f 190/5/6 136/5/6 183/5/6 
f 181/7/6 190/7/6 183/7/6 
f 136/7/6 61/7/6 184/7/6 
f 183/5/6 136/5/6 184/5/6 
f 184/7/6 61/7/6 60/7/6 
f 140/4/6 147/4/6 142/4/6 
f 17/4/6 37/4/6 39/4/6 
f 142/4/6 147/4/6 143/4/6 
f 39/4/6 113/4/6 20/4/6 
f 17/4/6 39/4/6 20/4/6 
f 20/4/6 113/4/6 114/4/6 
f 55/4/6 143/4/6 58/4/6 
f 143/4/6 147/4/6 148/4/6 
f 58/4/6 143/4/6 148/4/6 
f 123/3/6 174/3/6 117/3/6 
f 174/2/6 177/2/6 187/2/6 
f 117/3/6 174/3/6 187/3/6 
f 177/3/6 66/3/6 189/3/6 
f 187/2/6 177/2/6 189/2/6 
f 189/3/6 66/3/6 59/3/6 
f 41/2/6 180/2/6 44/2/6 
f 180/3/6 131/3/6 225/3/6 
f 44/2/6 180/2/6 225/2/6 
f 225/3/6 131/3/6 133/3/6 
f 44/6/6 225/6/6 46/6/6 
f 225/6/6 133/6/6 46/6/6 
f 46/6/6 133/6/6 226/6/6 
f 226/6/6 133/6/6 135/6/6 
f 46/3/6 226/3/6 48/3/6 
f 226/2/6 135/2/6 227/2/6 
f 48/3/6 226/3/6 227/3/6 
f 227/2/6 135/2/6 137/2/6 
f 48/6/6 227/6/6 50/6/6 
f 227/3/6 137/3/6 191/3/6 
f 50/6/6 227/6/6 191/6/6 
f 191/3/6 137/3/6 138/3/6 
f 36/5/6 117/5/6 38/5/6 
f 38/5/6 117/5/6 122/5/6 
f 59/5/6 73/5/6 64/5/6 
f 64/5/6 73/5/6 72/5/6 
f 122/3/6 182/3/6 126/3/6 
f 182/2/6 185/2/6 195/2/6 
f 126/3/6 182/3/6 195/3/6 
f 185/3/6 64/3/6 198/3/6 
f 195/2/6 185/2/6 198/2/6 
f 198/3/6 64/3/6 69/3/6 
f 101/2/6 124/2/6 99/2/6 
f 99/2/6 124/2/6 125/2/6 
f 65/2/6 76/2/6 67/2/6 
f 67/2/6 76/2/6 71/2/6 
f 24/5/6 99/5/6 26/5/6 
f 71/5/6 83/5/6 82/5/6 
f 26/5/6 99/5/6 27/5/6 
f 71/5/6 82/5/6 85/5/6 
f 27/5/6 99/5/6 28/5/6 
f 71/5/6 85/5/6 87/5/6 
f 28/5/6 99/5/6 29/5/6 
f 71/5/6 87/5/6 89/5/6 
f 29/5/6 99/5/6 30/5/6 
f 30/5/6 99/5/6 100/5/6 
f 71/5/6 89/5/6 74/5/6 
f 74/5/6 89/5/6 91/5/6 
f 100/2/6 127/2/6 104/2/6 
f 104/2/6 127/2/6 128/2/6 
f 68/2/6 74/2/6 70/2/6 
f 70/2/6 74/2/6 79/2/6 
f 1/1/6 171/1/6 4/1/6 
f 171/3/6 102/3/6 93/3/6 
f 4/1/6 171/1/6 93/1/6 
f 93/3/6 102/3/6 103/3/6 
f 75/3/6 178/3/6 77/3/6 
f 178/1/6 157/1/6 81/1/6 
f 77/3/6 178/3/6 81/3/6 
f 81/1/6 157/1/6 159/1/6 
f 4/2/6 93/2/6 6/2/6 
f 6/2/6 93/2/6 94/2/6 
f 81/2/6 159/2/6 84/2/6 
f 84/2/6 159/2/6 161/2/6 
f 6/3/6 94/3/6 8/3/6 
f 8/3/6 94/3/6 95/3/6 
f 84/3/6 161/3/6 86/3/6 
f 86/3/6 161/3/6 163/3/6 
f 8/2/6 95/2/6 10/2/6 
f 10/2/6 95/2/6 96/2/6 
f 86/2/6 163/2/6 88/2/6 
f 88/2/6 163/2/6 165/2/6 
f 10/3/6 96/3/6 12/3/6 
f 12/3/6 96/3/6 97/3/6 
f 88/3/6 165/3/6 90/3/6 
f 90/3/6 165/3/6 167/3/6 
f 12/2/6 97/2/6 14/2/6 
f 14/2/6 97/2/6 98/2/6 
f 90/2/6 167/2/6 92/2/6 
f 92/2/6 167/2/6 169/2/6 
f 14/1/6 98/1/6 16/1/6 
f 98/3/6 105/3/6 192/3/6 
f 16/1/6 98/1/6 192/1/6 
f 192/3/6 105/3/6 106/3/6 
f 78/3/6 92/3/6 80/3/6 
f 92/1/6 169/1/6 199/1/6 
f 80/3/6 92/3/6 199/3/6 
f 199/1/6 169/1/6 170/1/6 
# 0 polygons - 482 triangles

