# 3ds Max Wavefront OBJ Exporter v0.97b - (c)2007 guruware
# File Created: 15.04.2019 11:22:20

mtllib lvl3_desk.mtl

#
# object lvl3_desk
#

v  -1.0000 0.3796 -0.3000
v  -1.0000 -0.0204 -0.5000
v  -1.0000 -0.0204 -0.3000
v  -1.0000 0.6796 0.3000
v  -1.0000 -0.0204 0.3000
v  -1.0000 -0.0204 0.5000
v  -1.0000 0.6796 -0.1000
v  -1.0000 0.3796 -0.1000
v  -1.0000 0.7796 0.5000
v  -1.0000 0.7796 -0.5000
v  0.3000 0.6796 -0.1000
v  0.3000 0.3796 -0.5000
v  0.3000 0.3796 -0.1000
v  0.3000 0.6796 -0.2000
v  0.3000 0.6796 -0.4000
v  0.3000 0.6796 -0.5000
v  0.6000 0.6796 0.5000
v  0.6000 -0.0204 0.3000
v  0.6000 -0.0204 0.5000
v  0.6000 0.6796 0.4000
v  0.6000 0.6796 0.3000
v  0.8000 0.3796 -0.3000
v  0.8000 -0.0204 -0.5000
v  0.8000 -0.0204 -0.3000
v  0.8000 0.3796 -0.5000
v  -0.8000 -0.0204 -0.3000
v  -0.8000 -0.0204 -0.5000
v  -0.8000 0.3796 -0.3000
v  -0.8000 0.3796 -0.5000
v  -0.8000 -0.0204 0.5000
v  -0.8000 -0.0204 0.3000
v  -0.8000 0.6796 0.5000
v  -0.8000 0.6796 0.3000
v  -0.3000 0.3796 -0.1000
v  -0.3000 0.3796 -0.5000
v  -0.3000 0.6796 -0.1000
v  -0.3000 0.6796 -0.2000
v  -0.3000 0.6796 -0.4000
v  -0.3000 0.6796 -0.5000
v  0.8000 0.3796 -0.1000
v  0.8000 0.6796 -0.1000
v  0.8000 0.6796 -0.2000
v  0.8000 0.6796 -0.3000
v  1.0000 -0.0204 0.5000
v  1.0000 -0.0204 0.3000
v  1.0000 0.6796 0.3000
v  1.0000 -0.0204 -0.3000
v  1.0000 -0.0204 -0.5000
v  1.0000 0.6796 -0.3000
v  1.0000 0.7796 0.5000
v  1.0000 0.7796 -0.5000
v  -0.7000 0.6796 -0.1000
v  -0.5000 0.6796 -0.1000
v  0.5000 0.6796 -0.1000
v  0.7000 0.6796 -0.1000
v  -0.9000 0.6796 0.3000
v  0.7000 0.6796 0.3000
v  0.8000 0.6796 0.3000
v  0.9000 0.6796 0.3000
v  -0.8000 0.4796 -0.5000
v  -0.8000 0.6796 -0.5000
v  -0.5000 0.4796 -0.5000
v  -0.5000 0.6796 -0.5000
v  0.5000 0.4796 -0.5000
v  0.5000 0.6796 -0.5000
v  0.8000 0.4796 -0.5000
v  0.8000 0.6796 -0.5000
v  -0.7000 0.6796 0.4000
v  -0.6000 0.6796 0.4000
v  -0.7000 0.6796 0.3000
v  -0.6000 0.6796 0.3000
v  -0.5000 0.6796 0.3000
v  0.5000 0.6796 0.3000
v  -0.9000 0.6796 0.2000
v  -0.8000 0.6796 0.2000
v  -0.6000 0.6796 0.2000
v  -0.5000 0.6796 0.2000
v  0.5000 0.6796 0.2000
v  0.6000 0.6796 0.2000
v  0.8000 0.6796 0.2000
v  0.9000 0.6796 0.2000
v  -0.9000 0.6796 0.1000
v  -0.8000 0.6796 0.1000
v  0.8000 0.6796 0.1000
v  0.9000 0.6796 0.1000
v  -0.9000 0.6796 -0.0000
v  -0.8000 0.6796 -0.0000
v  0.8000 0.6796 -0.0000
v  0.9000 0.6796 -0.0000
v  0.9000 0.6796 -0.1000
v  0.9000 0.6796 -0.2000
v  -0.7000 0.7796 0.4000
v  -0.6000 0.7796 0.4000
v  0.6000 0.7796 0.4000
v  0.7000 0.7796 0.4000
v  -0.9000 0.7796 0.3000
v  -0.8000 0.7796 0.3000
v  -0.7000 0.7796 0.3000
v  -0.6000 0.7796 0.3000
v  -0.5000 0.7796 0.3000
v  0.5000 0.7796 0.3000
v  0.6000 0.7796 0.3000
v  0.7000 0.7796 0.3000
v  0.8000 0.7796 0.3000
v  0.9000 0.7796 0.3000
v  -0.9000 0.7796 0.2000
v  -0.8000 0.7796 0.2000
v  -0.6000 0.7796 0.2000
v  -0.5000 0.7796 0.2000
v  0.5000 0.7796 0.2000
v  0.6000 0.7796 0.2000
v  0.8000 0.7796 0.2000
v  0.9000 0.7796 0.2000
v  -0.9000 0.7796 0.1000
v  -0.8000 0.7796 0.1000
v  0.8000 0.7796 0.1000
v  0.9000 0.7796 0.1000
v  -0.9000 0.7796 -0.0000
v  -0.8000 0.7796 -0.0000
v  0.8000 0.7796 -0.0000
v  0.9000 0.7796 -0.0000
v  -0.9000 0.7796 -0.1000
v  -0.8000 0.7796 -0.1000
v  0.8000 0.7796 -0.1000
v  0.9000 0.7796 -0.1000
v  -0.9000 0.7796 -0.2000
v  -0.8000 0.7796 -0.2000
v  -0.6000 0.7796 -0.2000
v  -0.5000 0.7796 -0.2000
v  0.5000 0.7796 -0.2000
v  0.6000 0.7796 -0.2000
v  0.8000 0.7796 -0.2000
v  0.9000 0.7796 -0.2000
v  -0.9000 0.7796 -0.3000
v  -0.8000 0.7796 -0.3000
v  -0.7000 0.7796 -0.3000
v  -0.6000 0.7796 -0.3000
v  -0.5000 0.7796 -0.3000
v  0.5000 0.7796 -0.3000
v  0.6000 0.7796 -0.3000
v  0.7000 0.7796 -0.3000
v  0.8000 0.7796 -0.3000
v  0.9000 0.7796 -0.3000
v  -0.9000 0.7796 -0.4000
v  -0.8000 0.7796 -0.4000
v  -0.7000 0.7796 -0.4000
v  -0.6000 0.7796 -0.4000
v  0.6000 0.7796 -0.4000
v  0.7000 0.7796 -0.4000
v  0.8000 0.7796 -0.4000
v  0.9000 0.7796 -0.4000
# 151 vertices

vn -1.0000 0.0000 -0.0000
vn 1.0000 0.0000 -0.0000
vn 0.0000 0.0000 1.0000
vn 0.0000 0.0000 -1.0000
vn 0.0000 -1.0000 -0.0000
vn 0.0000 1.0000 -0.0000
# 6 vertex normals

vt 0.2715 0.5000 0.0000
vt 0.9043 0.5000 0.0000
vt 0.4316 0.5000 0.0000
vt 0.7363 0.5000 0.0000
# 4 texture coords

o lvl3_desk
g lvl3_desk
usemtl palette
s 1
f 1/1/1 2/1/1 3/1/1 
f 4/1/1 5/1/1 6/1/1 
f 7/1/1 1/1/1 8/1/1 
f 9/1/1 4/1/1 6/1/1 
f 9/1/1 7/1/1 4/1/1 
f 10/1/1 1/1/1 7/1/1 
f 10/1/1 7/1/1 9/1/1 
f 10/1/1 2/1/1 1/1/1 
f 11/1/1 12/1/1 13/1/1 
f 14/1/1 12/1/1 11/1/1 
f 15/1/1 12/1/1 14/1/1 
f 16/1/1 12/1/1 15/1/1 
f 17/1/1 18/1/1 19/1/1 
f 20/1/1 18/1/1 17/1/1 
f 21/1/1 18/1/1 20/1/1 
f 22/1/1 23/1/1 24/1/1 
f 25/1/1 23/1/1 22/1/1 
f 26/1/2 27/1/2 28/1/2 
f 28/1/2 27/1/2 29/1/2 
f 30/1/2 31/1/2 32/1/2 
f 32/1/2 31/1/2 33/1/2 
f 34/1/2 35/1/2 36/1/2 
f 36/1/2 35/1/2 37/1/2 
f 37/1/2 35/1/2 38/1/2 
f 38/1/2 35/1/2 39/1/2 
f 40/1/2 22/1/2 41/1/2 
f 41/1/2 22/1/2 42/1/2 
f 42/1/2 22/1/2 43/1/2 
f 44/1/2 45/1/2 46/1/2 
f 47/1/2 48/1/2 49/1/2 
f 44/1/2 46/1/2 50/1/2 
f 46/1/2 49/1/2 50/1/2 
f 49/1/2 48/1/2 51/1/2 
f 50/1/2 49/1/2 51/1/2 
f 30/1/3 9/1/3 6/1/3 
f 32/1/3 9/1/3 30/1/3 
f 17/1/3 9/1/3 32/1/3 
f 44/1/3 17/1/3 19/1/3 
f 50/1/3 9/1/3 17/1/3 
f 50/1/3 17/1/3 44/1/3 
f 52/1/3 7/1/3 8/1/3 
f 53/1/3 52/1/3 8/1/3 
f 34/1/3 53/1/3 8/1/3 
f 36/1/3 53/1/3 34/1/3 
f 54/1/3 11/1/3 13/1/3 
f 55/1/3 54/1/3 13/1/3 
f 40/1/3 55/1/3 13/1/3 
f 41/1/3 55/1/3 40/1/3 
f 26/1/3 1/1/3 3/1/3 
f 28/1/3 1/1/3 26/1/3 
f 47/1/3 22/1/3 24/1/3 
f 47/1/3 43/1/3 22/1/3 
f 49/1/3 43/1/3 47/1/3 
f 5/1/4 4/1/4 56/1/4 
f 5/1/4 56/1/4 31/1/4 
f 31/1/4 56/1/4 33/1/4 
f 18/1/4 21/1/4 57/1/4 
f 18/1/4 57/1/4 58/1/4 
f 18/1/4 58/1/4 59/1/4 
f 18/1/4 59/1/4 45/1/4 
f 45/1/4 59/1/4 46/1/4 
f 2/1/4 10/1/4 27/1/4 
f 27/1/4 10/1/4 29/1/4 
f 29/1/4 10/1/4 60/1/4 
f 60/1/4 10/1/4 61/1/4 
f 29/1/4 60/1/4 62/1/4 
f 60/2/4 61/2/4 62/2/4 
f 61/1/4 10/1/4 63/1/4 
f 62/2/4 61/2/4 63/2/4 
f 29/1/4 62/1/4 35/1/4 
f 62/1/4 63/1/4 35/1/4 
f 63/1/4 10/1/4 39/1/4 
f 35/1/4 63/1/4 39/1/4 
f 39/1/4 10/1/4 16/1/4 
f 12/1/4 16/1/4 64/1/4 
f 16/1/4 10/1/4 65/1/4 
f 64/1/4 16/1/4 65/1/4 
f 12/1/4 64/1/4 25/1/4 
f 64/2/4 65/2/4 66/2/4 
f 25/1/4 64/1/4 66/1/4 
f 65/1/4 10/1/4 67/1/4 
f 66/2/4 65/2/4 67/2/4 
f 25/1/4 66/1/4 48/1/4 
f 23/1/4 25/1/4 48/1/4 
f 66/1/4 67/1/4 48/1/4 
f 67/1/4 10/1/4 51/1/4 
f 48/1/4 67/1/4 51/1/4 
f 5/1/5 30/1/5 6/1/5 
f 31/1/5 30/1/5 5/1/5 
f 18/1/5 44/1/5 19/1/5 
f 45/1/5 44/1/5 18/1/5 
f 2/1/5 26/1/5 3/1/5 
f 27/1/5 26/1/5 2/1/5 
f 23/1/5 47/1/5 24/1/5 
f 48/1/5 47/1/5 23/1/5 
f 1/1/5 34/1/5 8/1/5 
f 28/1/5 34/1/5 1/1/5 
f 22/1/5 40/1/5 13/1/5 
f 29/1/5 34/1/5 28/1/5 
f 35/1/5 34/1/5 29/1/5 
f 12/1/5 22/1/5 13/1/5 
f 25/1/5 22/1/5 12/1/5 
f 68/1/5 17/1/5 32/1/5 
f 69/1/5 17/1/5 68/1/5 
f 20/1/5 17/1/5 69/1/5 
f 33/1/5 68/1/5 32/1/5 
f 70/3/5 69/3/5 68/3/5 
f 70/1/5 68/1/5 33/1/5 
f 71/4/5 20/4/5 69/4/5 
f 71/3/5 69/3/5 70/3/5 
f 72/4/5 20/4/5 71/4/5 
f 73/4/5 20/4/5 72/4/5 
f 21/4/5 20/4/5 73/4/5 
f 74/1/5 56/1/5 4/1/5 
f 74/2/5 33/2/5 56/2/5 
f 75/1/5 70/1/5 33/1/5 
f 75/2/5 33/2/5 74/2/5 
f 76/4/5 71/4/5 70/4/5 
f 76/3/5 72/3/5 71/3/5 
f 77/4/5 73/4/5 72/4/5 
f 77/3/5 72/3/5 76/3/5 
f 78/3/5 21/3/5 73/3/5 
f 78/4/5 73/4/5 77/4/5 
f 79/4/5 57/4/5 21/4/5 
f 79/3/5 21/3/5 78/3/5 
f 80/2/5 59/2/5 58/2/5 
f 80/1/5 58/1/5 57/1/5 
f 81/1/5 46/1/5 59/1/5 
f 81/2/5 59/2/5 80/2/5 
f 82/1/5 74/1/5 4/1/5 
f 82/1/5 75/1/5 74/1/5 
f 83/1/5 70/1/5 75/1/5 
f 83/1/5 75/1/5 82/1/5 
f 84/1/5 80/1/5 57/1/5 
f 84/1/5 81/1/5 80/1/5 
f 85/1/5 46/1/5 81/1/5 
f 85/1/5 81/1/5 84/1/5 
f 86/1/5 82/1/5 4/1/5 
f 86/2/5 83/2/5 82/2/5 
f 87/1/5 70/1/5 83/1/5 
f 87/2/5 83/2/5 86/2/5 
f 88/1/5 84/1/5 57/1/5 
f 88/2/5 85/2/5 84/2/5 
f 89/1/5 46/1/5 85/1/5 
f 89/2/5 85/2/5 88/2/5 
f 7/1/5 86/1/5 4/1/5 
f 7/1/5 87/1/5 86/1/5 
f 52/1/5 70/1/5 87/1/5 
f 52/1/5 87/1/5 7/1/5 
f 52/4/5 77/4/5 76/4/5 
f 52/4/5 76/4/5 70/4/5 
f 53/3/5 78/3/5 77/3/5 
f 53/4/5 77/4/5 52/4/5 
f 36/3/5 78/3/5 53/3/5 
f 11/3/5 78/3/5 36/3/5 
f 54/4/5 79/4/5 78/4/5 
f 54/3/5 78/3/5 11/3/5 
f 55/4/5 57/4/5 79/4/5 
f 55/4/5 79/4/5 54/4/5 
f 55/1/5 88/1/5 57/1/5 
f 55/1/5 89/1/5 88/1/5 
f 41/1/5 89/1/5 55/1/5 
f 90/1/5 46/1/5 89/1/5 
f 90/1/5 89/1/5 41/1/5 
f 37/3/5 11/3/5 36/3/5 
f 14/3/5 11/3/5 37/3/5 
f 42/2/5 90/2/5 41/2/5 
f 91/1/5 46/1/5 90/1/5 
f 91/2/5 90/2/5 42/2/5 
f 43/1/5 91/1/5 42/1/5 
f 49/1/5 46/1/5 91/1/5 
f 49/1/5 91/1/5 43/1/5 
f 38/4/5 14/4/5 37/4/5 
f 15/4/5 14/4/5 38/4/5 
f 39/1/5 15/1/5 38/1/5 
f 16/1/5 15/1/5 39/1/5 
f 9/1/6 50/1/6 92/1/6 
f 92/1/6 50/1/6 93/1/6 
f 93/1/6 50/1/6 94/1/6 
f 94/1/6 50/1/6 95/1/6 
f 9/1/6 92/1/6 96/1/6 
f 96/1/6 92/1/6 97/1/6 
f 92/3/6 93/3/6 98/3/6 
f 97/1/6 92/1/6 98/1/6 
f 93/4/6 94/4/6 99/4/6 
f 98/3/6 93/3/6 99/3/6 
f 99/4/6 94/4/6 100/4/6 
f 100/4/6 94/4/6 101/4/6 
f 94/3/6 95/3/6 102/3/6 
f 101/4/6 94/4/6 102/4/6 
f 95/1/6 50/1/6 103/1/6 
f 102/3/6 95/3/6 103/3/6 
f 103/1/6 50/1/6 104/1/6 
f 104/1/6 50/1/6 105/1/6 
f 96/2/6 97/2/6 106/2/6 
f 9/1/6 96/1/6 106/1/6 
f 97/1/6 98/1/6 107/1/6 
f 106/2/6 97/2/6 107/2/6 
f 98/4/6 99/4/6 108/4/6 
f 99/3/6 100/3/6 108/3/6 
f 100/4/6 101/4/6 109/4/6 
f 108/3/6 100/3/6 109/3/6 
f 101/3/6 102/3/6 110/3/6 
f 109/4/6 101/4/6 110/4/6 
f 102/4/6 103/4/6 111/4/6 
f 110/3/6 102/3/6 111/3/6 
f 104/2/6 105/2/6 112/2/6 
f 103/1/6 104/1/6 112/1/6 
f 105/1/6 50/1/6 113/1/6 
f 112/2/6 105/2/6 113/2/6 
f 9/1/6 106/1/6 114/1/6 
f 106/1/6 107/1/6 114/1/6 
f 107/1/6 98/1/6 115/1/6 
f 114/1/6 107/1/6 115/1/6 
f 103/1/6 112/1/6 116/1/6 
f 112/1/6 113/1/6 116/1/6 
f 113/1/6 50/1/6 117/1/6 
f 116/1/6 113/1/6 117/1/6 
f 9/1/6 114/1/6 118/1/6 
f 114/2/6 115/2/6 118/2/6 
f 115/1/6 98/1/6 119/1/6 
f 118/2/6 115/2/6 119/2/6 
f 103/1/6 116/1/6 120/1/6 
f 116/2/6 117/2/6 120/2/6 
f 117/1/6 50/1/6 121/1/6 
f 120/2/6 117/2/6 121/2/6 
f 9/1/6 118/1/6 122/1/6 
f 118/1/6 119/1/6 122/1/6 
f 119/1/6 98/1/6 123/1/6 
f 122/1/6 119/1/6 123/1/6 
f 103/1/6 120/1/6 124/1/6 
f 120/1/6 121/1/6 124/1/6 
f 121/1/6 50/1/6 125/1/6 
f 124/1/6 121/1/6 125/1/6 
f 9/1/6 122/1/6 126/1/6 
f 122/2/6 123/2/6 126/2/6 
f 123/1/6 98/1/6 127/1/6 
f 126/2/6 123/2/6 127/2/6 
f 108/4/6 109/4/6 128/4/6 
f 98/4/6 108/4/6 128/4/6 
f 109/3/6 110/3/6 129/3/6 
f 128/4/6 109/4/6 129/4/6 
f 110/4/6 111/4/6 130/4/6 
f 129/3/6 110/3/6 130/3/6 
f 111/4/6 103/4/6 131/4/6 
f 130/4/6 111/4/6 131/4/6 
f 103/1/6 124/1/6 132/1/6 
f 124/2/6 125/2/6 132/2/6 
f 125/1/6 50/1/6 133/1/6 
f 132/2/6 125/2/6 133/2/6 
f 126/1/6 127/1/6 134/1/6 
f 9/1/6 126/1/6 134/1/6 
f 127/1/6 98/1/6 135/1/6 
f 134/1/6 127/1/6 135/1/6 
f 98/4/6 128/4/6 136/4/6 
f 135/1/6 98/1/6 136/1/6 
f 128/3/6 129/3/6 137/3/6 
f 136/4/6 128/4/6 137/4/6 
f 129/4/6 130/4/6 138/4/6 
f 137/3/6 129/3/6 138/3/6 
f 130/3/6 131/3/6 139/3/6 
f 138/4/6 130/4/6 139/4/6 
f 131/4/6 103/4/6 140/4/6 
f 139/3/6 131/3/6 140/3/6 
f 103/1/6 132/1/6 141/1/6 
f 140/4/6 103/4/6 141/4/6 
f 132/1/6 133/1/6 141/1/6 
f 141/1/6 133/1/6 142/1/6 
f 133/1/6 50/1/6 143/1/6 
f 142/1/6 133/1/6 143/1/6 
f 9/1/6 134/1/6 144/1/6 
f 134/2/6 135/2/6 144/2/6 
f 135/1/6 136/1/6 145/1/6 
f 144/2/6 135/2/6 145/2/6 
f 136/3/6 137/3/6 146/3/6 
f 145/1/6 136/1/6 146/1/6 
f 138/4/6 139/4/6 147/4/6 
f 146/3/6 137/3/6 147/3/6 
f 139/4/6 140/4/6 147/4/6 
f 137/4/6 138/4/6 147/4/6 
f 140/3/6 141/3/6 148/3/6 
f 147/4/6 140/4/6 148/4/6 
f 141/1/6 142/1/6 149/1/6 
f 148/3/6 141/3/6 149/3/6 
f 142/2/6 143/2/6 150/2/6 
f 149/1/6 142/1/6 150/1/6 
f 143/1/6 50/1/6 151/1/6 
f 150/2/6 143/2/6 151/2/6 
f 149/1/6 150/1/6 10/1/6 
f 145/1/6 146/1/6 10/1/6 
f 150/1/6 151/1/6 10/1/6 
f 148/1/6 149/1/6 10/1/6 
f 9/1/6 144/1/6 10/1/6 
f 144/1/6 145/1/6 10/1/6 
f 147/1/6 148/1/6 10/1/6 
f 146/1/6 147/1/6 10/1/6 
f 151/1/6 50/1/6 51/1/6 
f 10/1/6 151/1/6 51/1/6 
# 0 polygons - 298 triangles

