# MagicaVoxel @ Ephtracy

# group
o 

# material
mtllib Sol_1.mtl
usemtl palette

# normals
vn -1 0 0
vn 1 0 0
vn 0 0 1
vn 0 0 -1
vn 0 -1 0
vn 0 1 0

# texcoords
vt 0.642578 0.5
vt 0.982422 0.5
vt 0.986328 0.5

# verts
v 1 0 -1
v 1 0 -2
v 1 0.2 -1
v 1 0.2 -2
v 2 0 -1
v 2 0 -2
v 2 0.2 -1
v 2 0.2 -2
v 1 0 -1
v 1 0.2 -1
v 1.2 0.1 -1
v 1.2 0.2 -1
v 1.9 0.1 -1
v 1.9 0.2 -1
v 2 0 -1
v 2 0.2 -1
v 1 0 -2
v 1 0.2 -2
v 2 0 -2
v 2 0.2 -2
v 1 0 -1
v 2 0 -1
v 1 0 -2
v 2 0 -2
v 1 0.2 -1
v 1.2 0.2 -1
v 1.9 0.2 -1
v 2 0.2 -1
v 1.3 0.2 -1.1
v 1.4 0.2 -1.1
v 1.5 0.2 -1.1
v 1.6 0.2 -1.1
v 1.7 0.2 -1.1
v 1.8 0.2 -1.1
v 1.3 0.2 -1.2
v 1.4 0.2 -1.2
v 1.5 0.2 -1.2
v 1.6 0.2 -1.2
v 1.7 0.2 -1.2
v 1.8 0.2 -1.2
v 1.2 0.2 -1.3
v 1.9 0.2 -1.3
v 1 0.2 -2
v 2 0.2 -2

# faces
f 3/1/1 2/1/1 1/1/1
f 4/1/1 2/1/1 3/1/1
f 5/1/2 6/1/2 7/1/2
f 7/1/2 6/1/2 8/1/2
f 11/1/3 10/1/3 9/1/3
f 12/1/3 10/1/3 11/1/3
f 13/1/3 11/1/3 9/1/3
f 13/2/3 12/2/3 11/2/3
f 14/2/3 12/2/3 13/2/3
f 15/1/3 13/1/3 9/1/3
f 15/1/3 14/1/3 13/1/3
f 16/1/3 14/1/3 15/1/3
f 17/1/4 18/1/4 19/1/4
f 19/1/4 18/1/4 20/1/4
f 23/1/5 22/1/5 21/1/5
f 24/1/5 22/1/5 23/1/5
f 26/2/6 27/2/6 29/2/6
f 29/2/6 27/2/6 30/2/6
f 30/2/6 27/2/6 31/2/6
f 31/2/6 27/2/6 32/2/6
f 32/2/6 27/2/6 33/2/6
f 33/2/6 27/2/6 34/2/6
f 26/2/6 29/2/6 35/2/6
f 29/3/6 30/3/6 35/3/6
f 30/2/6 31/2/6 36/2/6
f 35/3/6 30/3/6 36/3/6
f 31/3/6 32/3/6 37/3/6
f 36/2/6 31/2/6 37/2/6
f 32/2/6 33/2/6 38/2/6
f 37/3/6 32/3/6 38/3/6
f 33/3/6 34/3/6 39/3/6
f 38/2/6 33/2/6 39/2/6
f 34/2/6 27/2/6 40/2/6
f 39/3/6 34/3/6 40/3/6
f 25/1/6 26/1/6 41/1/6
f 38/2/6 39/2/6 41/2/6
f 39/2/6 40/2/6 41/2/6
f 36/2/6 37/2/6 41/2/6
f 35/2/6 36/2/6 41/2/6
f 26/2/6 35/2/6 41/2/6
f 37/2/6 38/2/6 41/2/6
f 40/2/6 27/2/6 42/2/6
f 41/2/6 40/2/6 42/2/6
f 27/1/6 28/1/6 42/1/6
f 25/1/6 41/1/6 43/1/6
f 41/1/6 42/1/6 43/1/6
f 42/1/6 28/1/6 44/1/6
f 43/1/6 42/1/6 44/1/6
