# 3ds Max Wavefront OBJ Exporter v0.97b - (c)2007 guruware
# File Created: 14.04.2019 23:52:06

mtllib SM_floor_00.mtl

#
# object floor6
#

v  -0.5000 0.0884 0.5000
v  -0.5000 -0.0116 -0.3000
v  -0.5000 -0.0116 0.5000
v  -0.5000 0.0884 -0.3000
v  -0.5000 -0.0116 -0.4000
v  -0.5000 0.0884 -0.4000
v  -0.5000 -0.0116 -0.5000
v  -0.5000 0.0884 -0.5000
v  0.5000 -0.0116 0.5000
v  0.5000 -0.0116 -0.5000
v  0.5000 0.0884 0.5000
v  0.5000 0.0884 -0.5000
v  -0.2000 -0.0116 -0.5000
v  -0.2000 0.0884 -0.5000
v  -0.1000 -0.0116 -0.5000
v  -0.1000 0.0884 -0.5000
v  -0.4000 -0.0116 0.4000
v  -0.1000 -0.0116 0.4000
v  0.2000 -0.0116 0.4000
v  0.3000 -0.0116 0.4000
v  -0.4000 -0.0116 0.3000
v  -0.1000 -0.0116 0.3000
v  0.2000 -0.0116 0.3000
v  0.3000 -0.0116 0.3000
v  0.1000 -0.0116 0.2000
v  0.4000 -0.0116 0.2000
v  -0.4000 -0.0116 0.1000
v  -0.3000 -0.0116 0.1000
v  0.1000 -0.0116 0.1000
v  0.4000 -0.0116 0.1000
v  -0.4000 -0.0116 -0.0000
v  -0.3000 -0.0116 -0.0000
v  0.3000 -0.0116 -0.0000
v  0.4000 -0.0116 -0.0000
v  0.0000 -0.0116 -0.1000
v  0.2000 -0.0116 -0.1000
v  0.3000 -0.0116 -0.1000
v  0.4000 -0.0116 -0.1000
v  0.0000 -0.0116 -0.2000
v  0.2000 -0.0116 -0.2000
v  -0.3000 -0.0116 -0.3000
v  -0.3000 -0.0116 -0.4000
v  -0.2000 -0.0116 -0.4000
v  -0.1000 -0.0116 -0.4000
v  -0.4000 0.0884 0.4000
v  -0.1000 0.0884 0.4000
v  0.2000 0.0884 0.4000
v  0.3000 0.0884 0.4000
v  -0.4000 0.0884 0.3000
v  -0.1000 0.0884 0.3000
v  0.2000 0.0884 0.3000
v  0.3000 0.0884 0.3000
v  0.1000 0.0884 0.2000
v  0.4000 0.0884 0.2000
v  -0.4000 0.0884 0.1000
v  -0.3000 0.0884 0.1000
v  0.1000 0.0884 0.1000
v  0.4000 0.0884 0.1000
v  -0.4000 0.0884 -0.0000
v  -0.3000 0.0884 -0.0000
v  0.3000 0.0884 -0.0000
v  0.4000 0.0884 -0.0000
v  0.0000 0.0884 -0.1000
v  0.2000 0.0884 -0.1000
v  0.3000 0.0884 -0.1000
v  0.4000 0.0884 -0.1000
v  0.0000 0.0884 -0.2000
v  0.2000 0.0884 -0.2000
v  -0.3000 0.0884 -0.3000
v  -0.3000 0.0884 -0.4000
v  -0.2000 0.0884 -0.4000
v  -0.1000 0.0884 -0.4000
# 72 vertices

vn -1.0000 0.0000 -0.0000
vn 1.0000 0.0000 -0.0000
vn 0.0000 0.0000 1.0000
vn 0.0000 0.0000 -1.0000
vn 0.0000 -1.0000 -0.0000
vn 0.0000 1.0000 -0.0000
# 6 vertex normals

vt 0.5371 0.5000 0.0000
vt 0.3691 0.5000 0.0000
vt 0.2012 0.5000 0.0000
vt 0.2285 0.5000 0.0000
# 4 texture coords

o floor6
g floor6
usemtl floor_palette
s 1
f 1/1/1 2/1/1 3/1/1 
f 4/2/1 5/2/1 2/2/1 
f 4/1/1 2/1/1 1/1/1 
f 6/1/1 7/1/1 5/1/1 
f 6/2/1 5/2/1 4/2/1 
f 8/1/1 7/1/1 6/1/1 
f 9/1/2 10/1/2 11/1/2 
f 11/1/2 10/1/2 12/1/2 
f 9/1/3 1/1/3 3/1/3 
f 11/1/3 1/1/3 9/1/3 
f 7/1/4 8/1/4 13/1/4 
f 13/1/4 8/1/4 14/1/4 
f 13/3/4 14/3/4 15/3/4 
f 15/3/4 14/3/4 16/3/4 
f 15/1/4 16/1/4 10/1/4 
f 10/1/4 16/1/4 12/1/4 
f 17/1/5 9/1/5 3/1/5 
f 18/1/5 9/1/5 17/1/5 
f 19/1/5 9/1/5 18/1/5 
f 20/1/5 9/1/5 19/1/5 
f 21/1/5 17/1/5 3/1/5 
f 21/4/5 18/4/5 17/4/5 
f 22/1/5 19/1/5 18/1/5 
f 22/4/5 18/4/5 21/4/5 
f 23/3/5 20/3/5 19/3/5 
f 23/1/5 19/1/5 22/1/5 
f 24/1/5 9/1/5 20/1/5 
f 24/3/5 20/3/5 23/3/5 
f 25/1/5 23/1/5 22/1/5 
f 25/1/5 22/1/5 21/1/5 
f 25/1/5 24/1/5 23/1/5 
f 26/1/5 9/1/5 24/1/5 
f 26/1/5 24/1/5 25/1/5 
f 27/1/5 25/1/5 21/1/5 
f 27/1/5 21/1/5 3/1/5 
f 28/1/5 25/1/5 27/1/5 
f 29/2/5 26/2/5 25/2/5 
f 29/1/5 25/1/5 28/1/5 
f 30/1/5 9/1/5 26/1/5 
f 30/2/5 26/2/5 29/2/5 
f 31/3/5 28/3/5 27/3/5 
f 31/1/5 27/1/5 3/1/5 
f 32/1/5 29/1/5 28/1/5 
f 32/3/5 28/3/5 31/3/5 
f 32/1/5 30/1/5 29/1/5 
f 33/1/5 30/1/5 32/1/5 
f 34/1/5 9/1/5 30/1/5 
f 34/1/5 30/1/5 33/1/5 
f 35/1/5 33/1/5 32/1/5 
f 35/1/5 32/1/5 31/1/5 
f 36/1/5 33/1/5 35/1/5 
f 37/3/5 34/3/5 33/3/5 
f 37/1/5 33/1/5 36/1/5 
f 38/1/5 9/1/5 34/1/5 
f 38/3/5 34/3/5 37/3/5 
f 39/4/5 36/4/5 35/4/5 
f 39/1/5 35/1/5 31/1/5 
f 40/1/5 37/1/5 36/1/5 
f 40/4/5 36/4/5 39/4/5 
f 40/1/5 38/1/5 37/1/5 
f 2/1/5 31/1/5 3/1/5 
f 2/1/5 39/1/5 31/1/5 
f 2/1/5 40/1/5 39/1/5 
f 41/1/5 40/1/5 2/1/5 
f 5/2/5 41/2/5 2/2/5 
f 42/1/5 40/1/5 41/1/5 
f 42/2/5 41/2/5 5/2/5 
f 43/1/5 40/1/5 42/1/5 
f 44/1/5 40/1/5 43/1/5 
f 7/1/5 42/1/5 5/1/5 
f 7/1/5 43/1/5 42/1/5 
f 13/3/5 44/3/5 43/3/5 
f 13/1/5 43/1/5 7/1/5 
f 15/1/5 40/1/5 44/1/5 
f 15/3/5 44/3/5 13/3/5 
f 10/1/5 38/1/5 40/1/5 
f 10/1/5 40/1/5 15/1/5 
f 10/1/5 9/1/5 38/1/5 
f 1/1/6 11/1/6 45/1/6 
f 45/1/6 11/1/6 46/1/6 
f 46/1/6 11/1/6 47/1/6 
f 47/1/6 11/1/6 48/1/6 
f 1/1/6 45/1/6 49/1/6 
f 45/4/6 46/4/6 49/4/6 
f 46/1/6 47/1/6 50/1/6 
f 49/4/6 46/4/6 50/4/6 
f 47/3/6 48/3/6 51/3/6 
f 50/1/6 47/1/6 51/1/6 
f 48/1/6 11/1/6 52/1/6 
f 51/3/6 48/3/6 52/3/6 
f 50/1/6 51/1/6 53/1/6 
f 49/1/6 50/1/6 53/1/6 
f 51/1/6 52/1/6 53/1/6 
f 52/1/6 11/1/6 54/1/6 
f 53/1/6 52/1/6 54/1/6 
f 49/1/6 53/1/6 55/1/6 
f 1/1/6 49/1/6 55/1/6 
f 55/1/6 53/1/6 56/1/6 
f 53/2/6 54/2/6 57/2/6 
f 56/1/6 53/1/6 57/1/6 
f 54/1/6 11/1/6 58/1/6 
f 57/2/6 54/2/6 58/2/6 
f 55/3/6 56/3/6 59/3/6 
f 1/1/6 55/1/6 59/1/6 
f 56/1/6 57/1/6 60/1/6 
f 59/3/6 56/3/6 60/3/6 
f 57/1/6 58/1/6 60/1/6 
f 60/1/6 58/1/6 61/1/6 
f 58/1/6 11/1/6 62/1/6 
f 61/1/6 58/1/6 62/1/6 
f 60/1/6 61/1/6 63/1/6 
f 59/1/6 60/1/6 63/1/6 
f 63/1/6 61/1/6 64/1/6 
f 61/3/6 62/3/6 65/3/6 
f 64/1/6 61/1/6 65/1/6 
f 62/1/6 11/1/6 66/1/6 
f 65/3/6 62/3/6 66/3/6 
f 63/4/6 64/4/6 67/4/6 
f 59/1/6 63/1/6 67/1/6 
f 64/1/6 65/1/6 68/1/6 
f 67/4/6 64/4/6 68/4/6 
f 65/1/6 66/1/6 68/1/6 
f 1/1/6 59/1/6 4/1/6 
f 59/1/6 67/1/6 4/1/6 
f 67/1/6 68/1/6 4/1/6 
f 4/1/6 68/1/6 69/1/6 
f 4/2/6 69/2/6 6/2/6 
f 69/1/6 68/1/6 70/1/6 
f 6/2/6 69/2/6 70/2/6 
f 70/1/6 68/1/6 71/1/6 
f 71/1/6 68/1/6 72/1/6 
f 6/1/6 70/1/6 8/1/6 
f 70/1/6 71/1/6 8/1/6 
f 71/3/6 72/3/6 14/3/6 
f 8/1/6 71/1/6 14/1/6 
f 72/1/6 68/1/6 16/1/6 
f 14/3/6 72/3/6 16/3/6 
f 68/1/6 66/1/6 12/1/6 
f 16/1/6 68/1/6 12/1/6 
f 66/1/6 11/1/6 12/1/6 
# 0 polygons - 140 triangles

