# 3ds Max Wavefront OBJ Exporter v0.97b - (c)2007 guruware
# File Created: 15.04.2019 10:37:40

mtllib SM_tp.mtl

#
# object Scene_tp
#

v  0.4993 0.1033 0.5000
v  -0.5000 -0.0033 0.5000
v  0.5000 0.0033 0.5000
v  0.0993 0.1007 0.5000
v  -0.1007 0.0993 0.5000
v  -0.5006 0.0967 0.5000
v  0.0987 0.2007 0.5000
v  -0.1013 0.1993 0.5000
v  0.2987 0.2020 0.4000
v  0.0993 0.1007 0.4000
v  0.2993 0.1020 0.4000
v  0.0987 0.2007 0.4000
v  -0.1013 0.1993 0.4000
v  -0.3006 0.0980 0.4000
v  -0.1007 0.0993 0.4000
v  -0.3013 0.1980 0.4000
v  0.3987 0.2026 0.2000
v  0.2993 0.1020 0.2000
v  0.3993 0.1026 0.2000
v  0.2987 0.2020 0.2000
v  -0.3013 0.1980 0.2000
v  -0.4006 0.0974 0.2000
v  -0.3006 0.0980 0.2000
v  -0.4013 0.1974 0.2000
v  0.4987 0.2033 0.1000
v  0.3993 0.1026 0.1000
v  0.4993 0.1033 0.1000
v  0.3987 0.2026 0.1000
v  -0.4013 0.1974 0.1000
v  -0.5006 0.0967 0.1000
v  -0.4006 0.0974 0.1000
v  -0.5013 0.1967 0.1000
v  0.4993 0.1033 -0.1000
v  0.3993 0.1026 -0.1000
v  0.4987 0.2033 -0.1000
v  0.3987 0.2026 -0.1000
v  -0.4006 0.0974 -0.1000
v  -0.5006 0.0967 -0.1000
v  -0.4013 0.1974 -0.1000
v  -0.5013 0.1967 -0.1000
v  0.3993 0.1026 -0.2000
v  0.2993 0.1020 -0.2000
v  0.3987 0.2026 -0.2000
v  0.2987 0.2020 -0.2000
v  -0.3006 0.0980 -0.2000
v  -0.4006 0.0974 -0.2000
v  -0.3013 0.1980 -0.2000
v  -0.4013 0.1974 -0.2000
v  0.2993 0.1020 -0.4000
v  0.0993 0.1007 -0.4000
v  0.2987 0.2020 -0.4000
v  0.0987 0.2007 -0.4000
v  -0.1007 0.0993 -0.4000
v  -0.3006 0.0980 -0.4000
v  -0.1013 0.1993 -0.4000
v  -0.3013 0.1980 -0.4000
v  0.5000 0.0033 -0.5000
v  -0.5000 -0.0033 -0.5000
v  0.4993 0.1033 -0.5000
v  0.0993 0.1007 -0.5000
v  -0.1007 0.0993 -0.5000
v  -0.5006 0.0967 -0.5000
v  0.0987 0.2007 -0.5000
v  -0.1013 0.1993 -0.5000
v  0.2987 0.2020 0.1000
v  0.2987 0.2020 -0.1000
v  0.1987 0.2013 0.3000
v  0.1987 0.2013 0.2000
v  0.1987 0.2013 0.0000
v  0.1987 0.2013 -0.1000
v  0.1987 0.2013 -0.2000
v  0.1987 0.2013 -0.3000
v  0.0987 0.2007 0.3000
v  0.0987 0.2007 0.2000
v  0.0987 0.2007 0.0000
v  0.0987 0.2007 -0.1000
v  0.0987 0.2007 -0.2000
v  0.0987 0.2007 -0.3000
v  -0.0013 0.2000 0.2000
v  -0.0013 0.2000 0.1000
v  -0.0013 0.2000 -0.1000
v  -0.0013 0.2000 -0.2000
v  -0.1013 0.1993 0.3000
v  -0.1013 0.1993 0.2000
v  -0.1013 0.1993 0.1000
v  -0.1013 0.1993 0.0000
v  -0.1013 0.1993 -0.1000
v  -0.1013 0.1993 -0.2000
v  -0.1013 0.1993 -0.3000
v  -0.2013 0.1987 0.3000
v  -0.2013 0.1987 0.2000
v  -0.2013 0.1987 0.1000
v  -0.2013 0.1987 -0.2000
v  -0.2013 0.1987 -0.3000
v  -0.3013 0.1980 0.1000
v  -0.3013 0.1980 -0.1000
# 96 vertices

vn 0.0000 0.0000 1.0000
vn 0.0000 -0.0000 1.0000
vn 0.0000 0.0000 -1.0000
vn 1.0000 0.0066 0.0000
vn 1.0000 0.0066 -0.0000
vn -1.0000 -0.0066 -0.0000
vn 0.0066 -1.0000 -0.0000
vn 0.0065 -1.0000 -0.0000
vn -0.0066 1.0000 -0.0000
vn -0.0066 1.0000 0.0000
# 10 vertex normals

vt 0.6152 0.5000 0.0000
vt 0.3730 0.5000 0.0000
vt 0.7051 0.5000 0.0000
vt 0.5645 0.5000 0.0000
vt 0.2832 0.5000 0.0000
# 5 texture coords

o Scene_tp
g Scene_tp
usemtl Scene_tp_palette
s off
f 1/1/1 2/1/2 3/1/2 
f 4/1/1 2/1/2 1/1/1 
f 5/1/1 2/1/2 4/1/1 
f 6/1/1 2/1/2 5/1/1 
f 7/2/1 5/2/1 4/2/1 
f 8/2/1 5/2/1 7/2/1 
f 9/2/1 10/2/2 11/2/2 
f 12/2/1 10/2/2 9/2/1 
f 13/2/1 14/2/2 15/2/2 
f 16/2/1 14/2/2 13/2/1 
f 17/2/1 18/2/1 19/2/1 
f 20/2/1 18/2/1 17/2/1 
f 21/2/1 22/2/1 23/2/1 
f 24/2/1 22/2/1 21/2/1 
f 25/2/1 26/2/1 27/2/1 
f 28/2/1 26/2/1 25/2/1 
f 29/2/1 30/2/1 31/2/1 
f 32/2/1 30/2/1 29/2/1 
f 33/2/3 34/2/3 35/2/3 
f 35/2/3 34/2/3 36/2/3 
f 37/2/3 38/2/3 39/2/3 
f 39/2/3 38/2/3 40/2/3 
f 41/2/3 42/2/3 43/2/3 
f 43/2/3 42/2/3 44/2/3 
f 45/2/3 46/2/3 47/2/3 
f 47/2/3 46/2/3 48/2/3 
f 49/2/3 50/2/3 51/2/3 
f 51/2/3 50/2/3 52/2/3 
f 53/2/3 54/2/3 55/2/3 
f 55/2/3 54/2/3 56/2/3 
f 57/1/3 58/1/3 59/1/3 
f 59/1/3 58/1/3 60/1/3 
f 60/1/3 58/1/3 61/1/3 
f 61/1/3 58/1/3 62/1/3 
f 60/2/3 61/2/3 63/2/3 
f 63/2/3 61/2/3 64/2/3 
f 27/1/4 1/1/5 3/1/5 
f 33/1/4 27/1/4 3/1/5 
f 33/2/4 25/2/5 27/2/4 
f 35/2/5 25/2/5 33/2/4 
f 57/1/5 33/1/4 3/1/5 
f 59/1/5 33/1/4 57/1/5 
f 26/2/5 17/2/5 19/2/5 
f 28/2/5 17/2/5 26/2/5 
f 41/2/5 36/2/5 34/2/5 
f 43/2/5 36/2/5 41/2/5 
f 18/2/5 9/2/5 11/2/5 
f 20/2/5 9/2/5 18/2/5 
f 49/2/5 44/2/5 42/2/5 
f 51/2/5 44/2/5 49/2/5 
f 10/2/5 7/2/5 4/2/5 
f 12/2/5 7/2/5 10/2/5 
f 60/2/5 52/2/5 50/2/5 
f 63/2/5 52/2/5 60/2/5 
f 5/2/6 8/2/6 15/2/6 
f 15/2/6 8/2/6 13/2/6 
f 53/2/6 55/2/6 61/2/6 
f 61/2/6 55/2/6 64/2/6 
f 14/2/6 16/2/6 23/2/6 
f 23/2/6 16/2/6 21/2/6 
f 45/2/6 47/2/6 54/2/6 
f 54/2/6 47/2/6 56/2/6 
f 22/2/6 24/2/6 31/2/6 
f 31/2/6 24/2/6 29/2/6 
f 37/2/6 39/2/6 46/2/6 
f 46/2/6 39/2/6 48/2/6 
f 2/1/6 6/1/6 30/1/6 
f 2/1/6 30/1/6 38/1/6 
f 30/2/6 32/2/6 38/2/6 
f 38/2/6 32/2/6 40/2/6 
f 2/1/6 38/1/6 58/1/6 
f 58/1/6 38/1/6 62/1/6 
f 2/1/7 57/1/7 3/1/8 
f 58/1/7 57/1/7 2/1/7 
f 1/1/9 27/1/10 19/1/9 
f 19/1/9 27/1/10 26/1/10 
f 33/1/10 59/1/9 34/1/10 
f 34/1/10 59/1/9 41/1/9 
f 1/1/9 19/1/9 11/1/9 
f 11/1/9 19/1/9 18/1/9 
f 41/1/9 59/1/9 42/1/9 
f 42/1/9 59/1/9 49/1/9 
f 1/1/9 11/1/9 4/1/10 
f 4/1/10 11/1/9 10/1/9 
f 49/1/9 59/1/9 50/1/9 
f 50/1/9 59/1/9 60/1/9 
f 5/1/9 15/1/9 14/1/9 
f 53/1/9 61/1/9 54/1/9 
f 14/1/9 23/1/9 22/1/9 
f 45/1/9 54/1/9 46/1/9 
f 22/1/9 31/1/9 6/1/9 
f 5/1/9 14/1/9 6/1/9 
f 14/1/9 22/1/9 6/1/9 
f 6/1/9 31/1/9 30/1/9 
f 37/1/9 46/1/9 38/1/9 
f 46/1/9 54/1/9 62/1/9 
f 38/1/9 46/1/9 62/1/9 
f 54/1/9 61/1/9 62/1/9 
f 25/2/9 35/2/9 28/2/9 
f 28/2/9 35/2/9 36/2/9 
f 17/2/9 28/2/9 20/2/9 
f 28/3/9 36/3/9 65/3/9 
f 20/2/9 28/2/9 65/2/9 
f 36/2/9 43/2/9 66/2/9 
f 65/3/9 36/3/9 66/3/9 
f 66/2/9 43/2/9 44/2/9 
f 9/2/9 20/2/9 67/2/9 
f 20/3/9 65/3/9 68/3/9 
f 67/2/9 20/2/9 68/2/9 
f 65/3/9 66/3/9 68/3/9 
f 66/3/9 44/3/9 68/3/9 
f 68/3/9 44/3/9 69/3/10 
f 69/3/10 44/3/9 70/3/9 
f 44/2/9 51/2/9 71/2/9 
f 70/3/9 44/3/9 71/3/9 
f 71/2/9 51/2/9 72/2/9 
f 9/2/9 67/2/9 12/2/9 
f 67/3/9 68/3/9 73/3/9 
f 12/2/9 67/2/9 73/2/9 
f 68/4/9 69/4/10 74/4/9 
f 73/3/9 68/3/9 74/3/9 
f 69/5/10 70/5/9 75/5/10 
f 74/4/9 69/4/10 75/4/10 
f 70/3/9 71/3/9 76/3/10 
f 75/5/10 70/5/9 76/5/10 
f 71/3/9 72/3/9 76/3/10 
f 76/3/10 72/3/9 77/3/9 
f 72/2/9 51/2/9 78/2/9 
f 77/3/9 72/3/9 78/3/9 
f 78/2/9 51/2/9 52/2/9 
f 73/3/9 74/3/9 79/3/9 
f 12/3/9 73/3/9 79/3/9 
f 74/5/9 75/5/10 79/5/9 
f 79/5/9 75/5/10 80/5/9 
f 76/4/10 77/4/9 81/4/9 
f 75/4/10 76/4/10 81/4/9 
f 78/3/9 52/3/9 82/3/9 
f 81/4/9 77/4/9 82/4/9 
f 77/3/9 78/3/9 82/3/9 
f 7/2/9 12/2/9 8/2/9 
f 12/3/9 79/3/9 13/3/9 
f 8/2/9 12/2/9 13/2/9 
f 13/3/9 79/3/9 83/3/9 
f 79/4/9 80/4/9 84/4/9 
f 83/3/9 79/3/9 84/3/9 
f 80/5/9 75/5/10 85/5/9 
f 84/4/9 80/4/9 85/4/9 
f 75/4/10 81/4/9 86/4/10 
f 85/5/9 75/5/10 86/5/10 
f 81/5/9 82/5/9 87/5/9 
f 86/4/10 81/4/9 87/4/9 
f 82/3/9 52/3/9 88/3/9 
f 87/5/9 82/5/9 88/5/9 
f 88/3/9 52/3/9 89/3/9 
f 52/2/9 63/2/9 55/2/9 
f 89/3/9 52/3/9 55/3/9 
f 55/2/9 63/2/9 64/2/9 
f 83/3/9 84/3/9 90/3/9 
f 84/3/9 85/3/9 90/3/9 
f 13/2/9 83/2/9 90/2/9 
f 90/3/9 85/3/9 91/3/10 
f 86/4/10 87/4/9 92/4/9 
f 91/3/10 85/3/9 92/3/9 
f 87/4/9 88/4/9 92/4/9 
f 85/4/9 86/4/10 92/4/9 
f 88/3/9 89/3/9 93/3/10 
f 92/4/9 88/4/9 93/4/10 
f 89/2/9 55/2/9 94/2/9 
f 93/3/10 89/3/9 94/3/9 
f 90/2/9 91/2/10 16/2/9 
f 13/2/9 90/2/9 16/2/9 
f 91/3/10 92/3/9 21/3/9 
f 16/2/9 91/2/10 21/2/9 
f 92/3/9 93/3/10 21/3/9 
f 21/3/9 93/3/10 95/3/9 
f 95/3/9 93/3/10 96/3/9 
f 93/2/10 94/2/9 47/2/9 
f 96/3/9 93/3/10 47/3/9 
f 94/2/9 55/2/9 56/2/9 
f 47/2/9 94/2/9 56/2/9 
f 21/2/9 95/2/9 24/2/9 
f 95/3/9 96/3/9 29/3/9 
f 24/2/9 95/2/9 29/2/9 
f 96/2/9 47/2/9 39/2/9 
f 29/3/9 96/3/9 39/3/9 
f 39/2/9 47/2/9 48/2/9 
f 29/2/9 39/2/9 32/2/10 
f 32/2/10 39/2/9 40/2/10 
# 0 polygons - 188 triangles

