# 3ds Max Wavefront OBJ Exporter v0.97b - (c)2007 guruware
# File Created: 15.04.2019 10:15:18

mtllib wall.mtl

#
# object wall
#

v  -0.5000 0.4749 0.5000
v  -0.5000 -0.0251 -0.5000
v  -0.5000 -0.0251 0.5000
v  -0.5000 0.4749 0.4000
v  -0.5000 2.0749 0.4000
v  -0.5000 2.1749 0.5000
v  -0.5000 2.0749 0.5000
v  -0.5000 2.1749 -0.5000
v  -0.4000 2.0749 0.5000
v  -0.4000 0.4749 0.4000
v  -0.4000 0.4749 0.5000
v  -0.4000 2.0749 0.4000
v  -0.2000 2.0749 0.5000
v  -0.2000 0.4749 0.4000
v  -0.2000 0.4749 0.5000
v  -0.2000 2.0749 0.4000
v  0.0000 2.0749 0.5000
v  0.0000 0.4749 0.4000
v  0.0000 0.4749 0.5000
v  0.0000 2.0749 0.4000
v  0.2000 2.0749 0.5000
v  0.2000 0.4749 0.4000
v  0.2000 0.4749 0.5000
v  0.2000 2.0749 0.4000
v  0.4000 2.0749 0.5000
v  0.4000 0.4749 0.4000
v  0.4000 0.4749 0.5000
v  0.4000 2.0749 0.4000
v  -0.3000 0.4749 0.5000
v  -0.3000 0.4749 0.4000
v  -0.3000 2.0749 0.5000
v  -0.3000 2.0749 0.4000
v  -0.1000 0.4749 0.5000
v  -0.1000 0.4749 0.4000
v  -0.1000 2.0749 0.5000
v  -0.1000 2.0749 0.4000
v  0.1000 0.4749 0.5000
v  0.1000 0.4749 0.4000
v  0.1000 2.0749 0.5000
v  0.1000 2.0749 0.4000
v  0.3000 0.4749 0.5000
v  0.3000 0.4749 0.4000
v  0.3000 2.0749 0.5000
v  0.3000 2.0749 0.4000
v  0.5000 -0.0251 0.5000
v  0.5000 -0.0251 -0.5000
v  0.5000 0.2749 0.5000
v  0.5000 0.2749 0.4000
v  0.5000 0.3749 0.5000
v  0.5000 0.3749 0.4000
v  0.5000 2.1749 0.5000
v  0.5000 2.1749 -0.5000
v  -0.4000 0.2749 0.5000
v  -0.4000 0.3749 0.5000
v  -0.3000 0.2749 0.5000
v  -0.3000 0.3749 0.5000
v  -0.2000 0.2749 0.5000
v  -0.2000 0.3749 0.5000
v  -0.1000 0.2749 0.5000
v  -0.1000 0.3749 0.5000
v  0.0000 0.2749 0.5000
v  0.0000 0.3749 0.5000
v  0.1000 0.2749 0.5000
v  0.1000 0.3749 0.5000
v  0.2000 0.2749 0.5000
v  0.2000 0.3749 0.5000
v  0.3000 0.2749 0.5000
v  0.3000 0.3749 0.5000
v  0.4000 0.2749 0.5000
v  0.4000 0.3749 0.5000
# 70 vertices

vn -1.0000 0.0000 -0.0000
vn 1.0000 0.0000 -0.0000
vn 0.0000 0.0000 1.0000
vn 0.0000 0.0000 -1.0000
vn 0.0000 -1.0000 -0.0000
vn 0.0000 1.0000 -0.0000
# 6 vertex normals

vt 0.9902 0.5000 0.0000
vt 0.9473 0.5000 0.0000
# 2 texture coords

o wall
g wall
usemtl palette
s 1
f 1/1/1 2/1/1 3/1/1 
f 4/1/1 2/1/1 1/1/1 
f 5/1/1 2/1/1 4/1/1 
f 6/1/1 5/1/1 7/1/1 
f 8/1/1 2/1/1 5/1/1 
f 8/1/1 5/1/1 6/1/1 
f 9/1/1 10/1/1 11/1/1 
f 12/1/1 10/1/1 9/1/1 
f 13/1/1 14/1/1 15/1/1 
f 16/1/1 14/1/1 13/1/1 
f 17/1/1 18/1/1 19/1/1 
f 20/1/1 18/1/1 17/1/1 
f 21/1/1 22/1/1 23/1/1 
f 24/1/1 22/1/1 21/1/1 
f 25/1/1 26/1/1 27/1/1 
f 28/1/1 26/1/1 25/1/1 
f 29/1/2 30/1/2 31/1/2 
f 31/1/2 30/1/2 32/1/2 
f 33/1/2 34/1/2 35/1/2 
f 35/1/2 34/1/2 36/1/2 
f 37/1/2 38/1/2 39/1/2 
f 39/1/2 38/1/2 40/1/2 
f 41/1/2 42/1/2 43/1/2 
f 43/1/2 42/1/2 44/1/2 
f 45/1/2 46/1/2 47/1/2 
f 47/1/2 46/1/2 48/1/2 
f 47/2/2 48/2/2 49/2/2 
f 48/1/2 46/1/2 50/1/2 
f 49/2/2 48/2/2 50/2/2 
f 49/1/2 50/1/2 51/1/2 
f 50/1/2 46/1/2 52/1/2 
f 51/1/2 50/1/2 52/1/2 
f 53/1/3 1/1/3 3/1/3 
f 54/1/3 1/1/3 53/1/3 
f 11/1/3 1/1/3 54/1/3 
f 9/1/3 6/1/3 7/1/3 
f 55/1/3 53/1/3 3/1/3 
f 55/2/3 54/2/3 53/2/3 
f 56/1/3 11/1/3 54/1/3 
f 56/2/3 54/2/3 55/2/3 
f 56/1/3 9/1/3 11/1/3 
f 29/1/3 9/1/3 56/1/3 
f 31/1/3 6/1/3 9/1/3 
f 31/1/3 9/1/3 29/1/3 
f 57/1/3 55/1/3 3/1/3 
f 57/1/3 29/1/3 56/1/3 
f 57/1/3 56/1/3 55/1/3 
f 58/1/3 29/1/3 57/1/3 
f 15/1/3 29/1/3 58/1/3 
f 13/1/3 6/1/3 31/1/3 
f 59/1/3 57/1/3 3/1/3 
f 59/2/3 58/2/3 57/2/3 
f 60/1/3 15/1/3 58/1/3 
f 60/2/3 58/2/3 59/2/3 
f 60/1/3 13/1/3 15/1/3 
f 33/1/3 13/1/3 60/1/3 
f 35/1/3 6/1/3 13/1/3 
f 35/1/3 13/1/3 33/1/3 
f 61/1/3 59/1/3 3/1/3 
f 61/1/3 33/1/3 60/1/3 
f 61/1/3 60/1/3 59/1/3 
f 62/1/3 33/1/3 61/1/3 
f 19/1/3 33/1/3 62/1/3 
f 17/1/3 6/1/3 35/1/3 
f 63/1/3 61/1/3 3/1/3 
f 63/2/3 62/2/3 61/2/3 
f 64/1/3 19/1/3 62/1/3 
f 64/2/3 62/2/3 63/2/3 
f 64/1/3 17/1/3 19/1/3 
f 37/1/3 17/1/3 64/1/3 
f 39/1/3 6/1/3 17/1/3 
f 39/1/3 17/1/3 37/1/3 
f 65/1/3 63/1/3 3/1/3 
f 65/1/3 37/1/3 64/1/3 
f 65/1/3 64/1/3 63/1/3 
f 66/1/3 37/1/3 65/1/3 
f 23/1/3 37/1/3 66/1/3 
f 21/1/3 6/1/3 39/1/3 
f 67/1/3 65/1/3 3/1/3 
f 67/2/3 66/2/3 65/2/3 
f 68/1/3 23/1/3 66/1/3 
f 68/2/3 66/2/3 67/2/3 
f 68/1/3 21/1/3 23/1/3 
f 41/1/3 21/1/3 68/1/3 
f 43/1/3 6/1/3 21/1/3 
f 43/1/3 21/1/3 41/1/3 
f 69/1/3 67/1/3 3/1/3 
f 69/1/3 41/1/3 68/1/3 
f 69/1/3 68/1/3 67/1/3 
f 70/1/3 41/1/3 69/1/3 
f 27/1/3 41/1/3 70/1/3 
f 25/1/3 6/1/3 43/1/3 
f 45/1/3 69/1/3 3/1/3 
f 47/2/3 70/2/3 69/2/3 
f 47/1/3 69/1/3 45/1/3 
f 49/1/3 27/1/3 70/1/3 
f 49/2/3 70/2/3 47/2/3 
f 49/1/3 25/1/3 27/1/3 
f 51/1/3 6/1/3 25/1/3 
f 51/1/3 25/1/3 49/1/3 
f 10/1/3 5/1/3 4/1/3 
f 12/1/3 5/1/3 10/1/3 
f 14/1/3 32/1/3 30/1/3 
f 16/1/3 32/1/3 14/1/3 
f 18/1/3 36/1/3 34/1/3 
f 20/1/3 36/1/3 18/1/3 
f 22/1/3 40/1/3 38/1/3 
f 24/1/3 40/1/3 22/1/3 
f 26/1/3 44/1/3 42/1/3 
f 28/1/3 44/1/3 26/1/3 
f 2/1/4 8/1/4 46/1/4 
f 46/1/4 8/1/4 52/1/4 
f 2/1/5 45/1/5 3/1/5 
f 46/1/5 45/1/5 2/1/5 
f 5/1/5 9/1/5 7/1/5 
f 12/1/5 9/1/5 5/1/5 
f 32/1/5 13/1/5 31/1/5 
f 16/1/5 13/1/5 32/1/5 
f 36/1/5 17/1/5 35/1/5 
f 20/1/5 17/1/5 36/1/5 
f 40/1/5 21/1/5 39/1/5 
f 24/1/5 21/1/5 40/1/5 
f 44/1/5 25/1/5 43/1/5 
f 28/1/5 25/1/5 44/1/5 
f 1/1/6 11/1/6 4/1/6 
f 4/1/6 11/1/6 10/1/6 
f 29/1/6 15/1/6 30/1/6 
f 30/1/6 15/1/6 14/1/6 
f 33/1/6 19/1/6 34/1/6 
f 34/1/6 19/1/6 18/1/6 
f 37/1/6 23/1/6 38/1/6 
f 38/1/6 23/1/6 22/1/6 
f 41/1/6 27/1/6 42/1/6 
f 42/1/6 27/1/6 26/1/6 
f 6/1/6 51/1/6 8/1/6 
f 8/1/6 51/1/6 52/1/6 
# 0 polygons - 136 triangles

