# MagicaVoxel @ Ephtracy

# group
o 

# material
mtllib Scene_tp.mtl
usemtl palette

# normals
vn -1 0 0
vn 1 0 0
vn 0 0 1
vn 0 0 -1
vn 0 -1 0
vn 0 1 0

# texcoords
vt 0.283203 0.5
vt 0.373047 0.5
vt 0.564453 0.5
vt 0.615234 0.5
vt 0.705078 0.5

# verts
v 0 2 -3
v 0 2 -4
v 0 2.1 -3
v 0 2.1 -3.4
v 0 2.1 -3.6
v 0 2.1 -4
v 0 2.2 -3.4
v 0 2.2 -3.6
v 0.1 2.1 -3.2
v 0.1 2.1 -3.4
v 0.1 2.1 -3.6
v 0.1 2.1 -3.8
v 0.1 2.2 -3.2
v 0.1 2.2 -3.4
v 0.1 2.2 -3.6
v 0.1 2.2 -3.8
v 0.3 2.1 -3.1
v 0.3 2.1 -3.2
v 0.3 2.1 -3.8
v 0.3 2.1 -3.9
v 0.3 2.2 -3.1
v 0.3 2.2 -3.2
v 0.3 2.2 -3.8
v 0.3 2.2 -3.9
v 0.4 2.1 -3
v 0.4 2.1 -3.1
v 0.4 2.1 -3.9
v 0.4 2.1 -4
v 0.4 2.2 -3
v 0.4 2.2 -3.1
v 0.4 2.2 -3.9
v 0.4 2.2 -4
v 0.6 2.1 -3
v 0.6 2.1 -3.1
v 0.6 2.1 -3.9
v 0.6 2.1 -4
v 0.6 2.2 -3
v 0.6 2.2 -3.1
v 0.6 2.2 -3.9
v 0.6 2.2 -4
v 0.7 2.1 -3.1
v 0.7 2.1 -3.2
v 0.7 2.1 -3.8
v 0.7 2.1 -3.9
v 0.7 2.2 -3.1
v 0.7 2.2 -3.2
v 0.7 2.2 -3.8
v 0.7 2.2 -3.9
v 0.9 2.1 -3.2
v 0.9 2.1 -3.4
v 0.9 2.1 -3.6
v 0.9 2.1 -3.8
v 0.9 2.2 -3.2
v 0.9 2.2 -3.4
v 0.9 2.2 -3.6
v 0.9 2.2 -3.8
v 1 2 -3
v 1 2 -4
v 1 2.1 -3
v 1 2.1 -3.4
v 1 2.1 -3.6
v 1 2.1 -4
v 1 2.2 -3.4
v 1 2.2 -3.6
v 0 2 -3
v 0 2.1 -3
v 0.4 2.1 -3
v 0.4 2.2 -3
v 0.6 2.1 -3
v 0.6 2.2 -3
v 1 2 -3
v 1 2.1 -3
v 0.3 2.1 -3.1
v 0.3 2.2 -3.1
v 0.4 2.1 -3.1
v 0.4 2.2 -3.1
v 0.6 2.1 -3.1
v 0.6 2.2 -3.1
v 0.7 2.1 -3.1
v 0.7 2.2 -3.1
v 0.1 2.1 -3.2
v 0.1 2.2 -3.2
v 0.3 2.1 -3.2
v 0.3 2.2 -3.2
v 0.7 2.1 -3.2
v 0.7 2.2 -3.2
v 0.9 2.1 -3.2
v 0.9 2.2 -3.2
v 0 2.1 -3.4
v 0 2.2 -3.4
v 0.1 2.1 -3.4
v 0.1 2.2 -3.4
v 0.9 2.1 -3.4
v 0.9 2.2 -3.4
v 1 2.1 -3.4
v 1 2.2 -3.4
v 0 2.1 -3.6
v 0 2.2 -3.6
v 0.1 2.1 -3.6
v 0.1 2.2 -3.6
v 0.9 2.1 -3.6
v 0.9 2.2 -3.6
v 1 2.1 -3.6
v 1 2.2 -3.6
v 0.1 2.1 -3.8
v 0.1 2.2 -3.8
v 0.3 2.1 -3.8
v 0.3 2.2 -3.8
v 0.7 2.1 -3.8
v 0.7 2.2 -3.8
v 0.9 2.1 -3.8
v 0.9 2.2 -3.8
v 0.3 2.1 -3.9
v 0.3 2.2 -3.9
v 0.4 2.1 -3.9
v 0.4 2.2 -3.9
v 0.6 2.1 -3.9
v 0.6 2.2 -3.9
v 0.7 2.1 -3.9
v 0.7 2.2 -3.9
v 0 2 -4
v 0 2.1 -4
v 0.4 2.1 -4
v 0.4 2.2 -4
v 0.6 2.1 -4
v 0.6 2.2 -4
v 1 2 -4
v 1 2.1 -4
v 0 2 -3
v 1 2 -3
v 0 2 -4
v 1 2 -4
v 0 2.1 -3
v 0.4 2.1 -3
v 0.6 2.1 -3
v 1 2.1 -3
v 0.3 2.1 -3.1
v 0.4 2.1 -3.1
v 0.6 2.1 -3.1
v 0.7 2.1 -3.1
v 0.1 2.1 -3.2
v 0.3 2.1 -3.2
v 0.7 2.1 -3.2
v 0.9 2.1 -3.2
v 0 2.1 -3.4
v 0.1 2.1 -3.4
v 0.9 2.1 -3.4
v 1 2.1 -3.4
v 0 2.1 -3.6
v 0.1 2.1 -3.6
v 0.9 2.1 -3.6
v 1 2.1 -3.6
v 0.1 2.1 -3.8
v 0.3 2.1 -3.8
v 0.7 2.1 -3.8
v 0.9 2.1 -3.8
v 0.3 2.1 -3.9
v 0.4 2.1 -3.9
v 0.6 2.1 -3.9
v 0.7 2.1 -3.9
v 0 2.1 -4
v 0.4 2.1 -4
v 0.6 2.1 -4
v 1 2.1 -4
v 0.4 2.2 -3
v 0.6 2.2 -3
v 0.3 2.2 -3.1
v 0.4 2.2 -3.1
v 0.6 2.2 -3.1
v 0.7 2.2 -3.1
v 0.1 2.2 -3.2
v 0.3 2.2 -3.2
v 0.4 2.2 -3.2
v 0.6 2.2 -3.2
v 0.7 2.2 -3.2
v 0.9 2.2 -3.2
v 0.2 2.2 -3.3
v 0.3 2.2 -3.3
v 0.5 2.2 -3.3
v 0.6 2.2 -3.3
v 0.7 2.2 -3.3
v 0.8 2.2 -3.3
v 0 2.2 -3.4
v 0.1 2.2 -3.4
v 0.2 2.2 -3.4
v 0.3 2.2 -3.4
v 0.5 2.2 -3.4
v 0.6 2.2 -3.4
v 0.7 2.2 -3.4
v 0.8 2.2 -3.4
v 0.9 2.2 -3.4
v 1 2.2 -3.4
v 0.3 2.2 -3.5
v 0.4 2.2 -3.5
v 0.6 2.2 -3.5
v 0.7 2.2 -3.5
v 0 2.2 -3.6
v 0.1 2.2 -3.6
v 0.2 2.2 -3.6
v 0.3 2.2 -3.6
v 0.4 2.2 -3.6
v 0.5 2.2 -3.6
v 0.6 2.2 -3.6
v 0.7 2.2 -3.6
v 0.8 2.2 -3.6
v 0.9 2.2 -3.6
v 1 2.2 -3.6
v 0.2 2.2 -3.7
v 0.3 2.2 -3.7
v 0.4 2.2 -3.7
v 0.7 2.2 -3.7
v 0.8 2.2 -3.7
v 0.1 2.2 -3.8
v 0.3 2.2 -3.8
v 0.4 2.2 -3.8
v 0.6 2.2 -3.8
v 0.7 2.2 -3.8
v 0.9 2.2 -3.8
v 0.3 2.2 -3.9
v 0.4 2.2 -3.9
v 0.6 2.2 -3.9
v 0.7 2.2 -3.9
v 0.4 2.2 -4
v 0.6 2.2 -4

# faces
f 3/4/1 2/4/1 1/4/1
f 4/4/1 2/4/1 3/4/1
f 5/4/1 2/4/1 4/4/1
f 6/4/1 2/4/1 5/4/1
f 7/2/1 5/2/1 4/2/1
f 8/2/1 5/2/1 7/2/1
f 13/2/1 10/2/1 9/2/1
f 14/2/1 10/2/1 13/2/1
f 15/2/1 12/2/1 11/2/1
f 16/2/1 12/2/1 15/2/1
f 21/2/1 18/2/1 17/2/1
f 22/2/1 18/2/1 21/2/1
f 23/2/1 20/2/1 19/2/1
f 24/2/1 20/2/1 23/2/1
f 29/2/1 26/2/1 25/2/1
f 30/2/1 26/2/1 29/2/1
f 31/2/1 28/2/1 27/2/1
f 32/2/1 28/2/1 31/2/1
f 33/2/2 34/2/2 37/2/2
f 37/2/2 34/2/2 38/2/2
f 35/2/2 36/2/2 39/2/2
f 39/2/2 36/2/2 40/2/2
f 41/2/2 42/2/2 45/2/2
f 45/2/2 42/2/2 46/2/2
f 43/2/2 44/2/2 47/2/2
f 47/2/2 44/2/2 48/2/2
f 49/2/2 50/2/2 53/2/2
f 53/2/2 50/2/2 54/2/2
f 51/2/2 52/2/2 55/2/2
f 55/2/2 52/2/2 56/2/2
f 57/4/2 58/4/2 59/4/2
f 59/4/2 58/4/2 60/4/2
f 60/4/2 58/4/2 61/4/2
f 61/4/2 58/4/2 62/4/2
f 60/2/2 61/2/2 63/2/2
f 63/2/2 61/2/2 64/2/2
f 67/4/3 66/4/3 65/4/3
f 69/4/3 67/4/3 65/4/3
f 69/2/3 68/2/3 67/2/3
f 70/2/3 68/2/3 69/2/3
f 71/4/3 69/4/3 65/4/3
f 72/4/3 69/4/3 71/4/3
f 75/2/3 74/2/3 73/2/3
f 76/2/3 74/2/3 75/2/3
f 79/2/3 78/2/3 77/2/3
f 80/2/3 78/2/3 79/2/3
f 83/2/3 82/2/3 81/2/3
f 84/2/3 82/2/3 83/2/3
f 87/2/3 86/2/3 85/2/3
f 88/2/3 86/2/3 87/2/3
f 91/2/3 90/2/3 89/2/3
f 92/2/3 90/2/3 91/2/3
f 95/2/3 94/2/3 93/2/3
f 96/2/3 94/2/3 95/2/3
f 97/2/4 98/2/4 99/2/4
f 99/2/4 98/2/4 100/2/4
f 101/2/4 102/2/4 103/2/4
f 103/2/4 102/2/4 104/2/4
f 105/2/4 106/2/4 107/2/4
f 107/2/4 106/2/4 108/2/4
f 109/2/4 110/2/4 111/2/4
f 111/2/4 110/2/4 112/2/4
f 113/2/4 114/2/4 115/2/4
f 115/2/4 114/2/4 116/2/4
f 117/2/4 118/2/4 119/2/4
f 119/2/4 118/2/4 120/2/4
f 121/4/4 122/4/4 123/4/4
f 121/4/4 123/4/4 125/4/4
f 123/2/4 124/2/4 125/2/4
f 125/2/4 124/2/4 126/2/4
f 121/4/4 125/4/4 127/4/4
f 127/4/4 125/4/4 128/4/4
f 131/4/5 130/4/5 129/4/5
f 132/4/5 130/4/5 131/4/5
f 133/4/6 134/4/6 137/4/6
f 137/4/6 134/4/6 138/4/6
f 135/4/6 136/4/6 139/4/6
f 139/4/6 136/4/6 140/4/6
f 133/4/6 137/4/6 141/4/6
f 141/4/6 137/4/6 142/4/6
f 140/4/6 136/4/6 143/4/6
f 143/4/6 136/4/6 144/4/6
f 133/4/6 141/4/6 145/4/6
f 145/4/6 141/4/6 146/4/6
f 144/4/6 136/4/6 147/4/6
f 147/4/6 136/4/6 148/4/6
f 149/4/6 150/4/6 153/4/6
f 151/4/6 152/4/6 156/4/6
f 153/4/6 154/4/6 157/4/6
f 155/4/6 156/4/6 160/4/6
f 157/4/6 158/4/6 161/4/6
f 149/4/6 153/4/6 161/4/6
f 153/4/6 157/4/6 161/4/6
f 161/4/6 158/4/6 162/4/6
f 159/4/6 160/4/6 163/4/6
f 160/4/6 156/4/6 164/4/6
f 163/4/6 160/4/6 164/4/6
f 156/4/6 152/4/6 164/4/6
f 165/2/6 166/2/6 168/2/6
f 168/2/6 166/2/6 169/2/6
f 167/2/6 168/2/6 172/2/6
f 168/5/6 169/5/6 173/5/6
f 172/2/6 168/2/6 173/2/6
f 169/2/6 170/2/6 174/2/6
f 173/5/6 169/5/6 174/5/6
f 174/2/6 170/2/6 175/2/6
f 171/2/6 172/2/6 177/2/6
f 172/5/6 173/5/6 178/5/6
f 177/2/6 172/2/6 178/2/6
f 173/5/6 174/5/6 178/5/6
f 174/5/6 175/5/6 178/5/6
f 178/5/6 175/5/6 179/5/6
f 179/5/6 175/5/6 180/5/6
f 175/2/6 176/2/6 181/2/6
f 180/5/6 175/5/6 181/5/6
f 181/2/6 176/2/6 182/2/6
f 171/2/6 177/2/6 184/2/6
f 177/5/6 178/5/6 185/5/6
f 184/2/6 177/2/6 185/2/6
f 178/3/6 179/3/6 186/3/6
f 185/5/6 178/5/6 186/5/6
f 179/1/6 180/1/6 187/1/6
f 186/3/6 179/3/6 187/3/6
f 180/5/6 181/5/6 188/5/6
f 187/1/6 180/1/6 188/1/6
f 181/5/6 182/5/6 188/5/6
f 188/5/6 182/5/6 189/5/6
f 182/2/6 176/2/6 190/2/6
f 189/5/6 182/5/6 190/5/6
f 190/2/6 176/2/6 191/2/6
f 185/5/6 186/5/6 193/5/6
f 184/5/6 185/5/6 193/5/6
f 186/1/6 187/1/6 193/1/6
f 193/1/6 187/1/6 194/1/6
f 188/3/6 189/3/6 195/3/6
f 187/3/6 188/3/6 195/3/6
f 190/5/6 191/5/6 196/5/6
f 195/3/6 189/3/6 196/3/6
f 189/5/6 190/5/6 196/5/6
f 183/2/6 184/2/6 197/2/6
f 184/5/6 193/5/6 198/5/6
f 197/2/6 184/2/6 198/2/6
f 198/5/6 193/5/6 199/5/6
f 193/3/6 194/3/6 200/3/6
f 199/5/6 193/5/6 200/5/6
f 194/1/6 187/1/6 201/1/6
f 200/3/6 194/3/6 201/3/6
f 187/3/6 195/3/6 202/3/6
f 201/1/6 187/1/6 202/1/6
f 195/1/6 196/1/6 203/1/6
f 202/3/6 195/3/6 203/3/6
f 196/5/6 191/5/6 204/5/6
f 203/1/6 196/1/6 204/1/6
f 204/5/6 191/5/6 205/5/6
f 191/2/6 192/2/6 206/2/6
f 205/5/6 191/5/6 206/5/6
f 206/2/6 192/2/6 207/2/6
f 199/5/6 200/5/6 208/5/6
f 200/5/6 201/5/6 208/5/6
f 198/2/6 199/2/6 208/2/6
f 208/5/6 201/5/6 209/5/6
f 202/3/6 203/3/6 210/3/6
f 209/5/6 201/5/6 210/5/6
f 203/3/6 204/3/6 210/3/6
f 201/3/6 202/3/6 210/3/6
f 204/5/6 205/5/6 211/5/6
f 210/3/6 204/3/6 211/3/6
f 205/2/6 206/2/6 212/2/6
f 211/5/6 205/5/6 212/5/6
f 208/2/6 209/2/6 213/2/6
f 198/2/6 208/2/6 213/2/6
f 209/5/6 210/5/6 214/5/6
f 213/2/6 209/2/6 214/2/6
f 210/5/6 211/5/6 214/5/6
f 214/5/6 211/5/6 215/5/6
f 215/5/6 211/5/6 216/5/6
f 211/2/6 212/2/6 217/2/6
f 216/5/6 211/5/6 217/5/6
f 212/2/6 206/2/6 218/2/6
f 217/2/6 212/2/6 218/2/6
f 214/2/6 215/2/6 219/2/6
f 215/5/6 216/5/6 220/5/6
f 219/2/6 215/2/6 220/2/6
f 216/2/6 217/2/6 221/2/6
f 220/5/6 216/5/6 221/5/6
f 221/2/6 217/2/6 222/2/6
f 220/2/6 221/2/6 223/2/6
f 223/2/6 221/2/6 224/2/6
