# 3ds Max Wavefront OBJ Exporter v0.97b - (c)2007 guruware
# File Created: 15.04.2019 00:10:41

mtllib SM_desk_01.mtl

#
# object lvl2_desk
#

v  -1.0000 0.0965 0.5000
v  -1.0000 -0.0035 0.3000
v  -1.0000 -0.0035 0.5000
v  -1.0000 0.0965 0.4000
v  -1.0000 0.0965 -0.3000
v  -1.0000 -0.0035 -0.4000
v  -1.0000 -0.0035 -0.3000
v  -1.0000 0.0965 -0.4000
v  -1.0000 -0.0035 -0.5000
v  -1.0000 0.0965 -0.5000
v  -1.0000 0.1965 0.5000
v  -1.0000 0.1965 0.4000
v  -1.0000 0.1965 0.3000
v  -1.0000 0.1965 -0.3000
v  -1.0000 0.1965 -0.4000
v  -1.0000 0.2965 0.5000
v  -1.0000 0.2965 0.4000
v  -1.0000 0.3965 -0.3000
v  -1.0000 0.3965 -0.4000
v  -1.0000 0.3965 -0.5000
v  -1.0000 0.4965 -0.3000
v  -1.0000 0.3965 -0.1000
v  -1.0000 0.4965 -0.4000
v  -1.0000 0.4965 -0.5000
v  -1.0000 0.5965 -0.1000
v  -1.0000 0.5965 -0.3000
v  -1.0000 0.6965 0.3000
v  -1.0000 0.6965 -0.1000
v  -1.0000 0.6965 -0.4000
v  -1.0000 0.6965 -0.5000
v  -1.0000 0.7965 0.5000
v  -1.0000 0.6965 -0.0000
v  -1.0000 0.7965 -0.0000
v  -1.0000 0.7965 -0.1000
v  -1.0000 0.7965 -0.4000
v  -1.0000 0.7965 -0.5000
v  0.3000 0.6965 -0.1000
v  0.3000 0.3965 -0.5000
v  0.3000 0.3965 -0.1000
v  0.3000 0.6965 -0.2000
v  0.3000 0.6965 -0.4000
v  0.3000 0.6965 -0.5000
v  0.6000 0.6965 0.5000
v  0.6000 -0.0035 0.3000
v  0.6000 -0.0035 0.5000
v  0.6000 0.6965 0.4000
v  0.6000 0.6965 0.3000
v  0.8000 0.0965 -0.3000
v  0.8000 -0.0035 -0.4000
v  0.8000 -0.0035 -0.3000
v  0.8000 0.0965 -0.4000
v  0.8000 -0.0035 -0.5000
v  0.8000 0.0965 -0.5000
v  0.8000 0.2965 -0.4000
v  0.8000 0.2965 -0.5000
v  0.8000 0.3965 -0.3000
v  0.8000 0.3965 -0.5000
v  -0.8000 -0.0035 0.5000
v  -0.8000 -0.0035 0.3000
v  -0.8000 0.0965 0.5000
v  -0.8000 0.0965 0.3000
v  -0.8000 -0.0035 -0.3000
v  -0.8000 -0.0035 -0.4000
v  -0.8000 0.0965 -0.3000
v  -0.8000 -0.0035 -0.5000
v  -0.8000 0.0965 -0.4000
v  -0.8000 0.0965 -0.5000
v  -0.8000 0.1965 -0.3000
v  -0.8000 0.1965 -0.4000
v  -0.8000 0.3965 -0.3000
v  -0.8000 0.3965 -0.5000
v  -0.8000 0.6965 0.5000
v  -0.8000 0.6965 0.3000
v  -0.3000 0.3965 -0.1000
v  -0.3000 0.3965 -0.5000
v  -0.3000 0.6965 -0.1000
v  -0.3000 0.6965 -0.2000
v  -0.3000 0.6965 -0.4000
v  -0.3000 0.6965 -0.5000
v  0.8000 0.3965 -0.1000
v  0.8000 0.6965 -0.1000
v  0.8000 0.6965 -0.3000
v  1.0000 -0.0035 0.5000
v  1.0000 -0.0035 0.3000
v  1.0000 0.0965 0.4000
v  1.0000 0.0965 0.3000
v  1.0000 -0.0035 -0.3000
v  1.0000 -0.0035 -0.4000
v  1.0000 0.0965 -0.3000
v  1.0000 -0.0035 -0.5000
v  1.0000 0.0965 -0.4000
v  1.0000 0.0965 -0.5000
v  1.0000 0.1965 0.5000
v  1.0000 0.1965 0.4000
v  1.0000 0.1965 0.3000
v  1.0000 0.1965 -0.4000
v  1.0000 0.1965 -0.5000
v  1.0000 0.2965 0.4000
v  1.0000 0.2965 0.3000
v  1.0000 0.2965 -0.3000
v  1.0000 0.2965 -0.5000
v  1.0000 0.6965 0.5000
v  1.0000 0.6965 0.4000
v  1.0000 0.6965 0.3000
v  1.0000 0.6965 -0.3000
v  1.0000 0.7965 0.5000
v  1.0000 0.7965 0.4000
v  1.0000 0.7965 0.3000
v  1.0000 0.7965 -0.5000
v  -0.9000 0.1965 0.5000
v  -0.9000 0.2965 0.5000
v  0.7000 -0.0035 0.5000
v  0.7000 0.0965 0.5000
v  0.8000 -0.0035 0.5000
v  0.8000 0.0965 0.5000
v  0.8000 0.1965 0.5000
v  0.9000 -0.0035 0.5000
v  0.9000 0.0965 0.5000
v  0.9000 0.6965 0.5000
v  0.9000 0.7965 0.5000
v  -0.9000 0.5965 -0.1000
v  -0.9000 0.6965 -0.1000
v  -0.7000 0.6965 -0.1000
v  -0.5000 0.6965 -0.1000
v  0.5000 0.6965 -0.1000
v  0.7000 0.6965 -0.1000
v  0.9000 -0.0035 -0.3000
v  0.9000 0.0965 -0.3000
v  0.9000 0.2965 -0.3000
v  -0.9000 0.0965 0.3000
v  -0.9000 0.1965 0.3000
v  0.7000 -0.0035 0.3000
v  0.7000 0.0965 0.3000
v  0.7000 0.6965 0.3000
v  0.8000 -0.0035 0.3000
v  0.8000 0.0965 0.3000
v  0.8000 0.1965 0.3000
v  0.9000 -0.0035 0.3000
v  0.9000 0.0965 0.3000
v  0.9000 0.1965 0.3000
v  0.9000 0.2965 0.3000
v  -0.9000 0.3965 -0.5000
v  -0.9000 0.4965 -0.5000
v  -0.9000 0.6965 -0.5000
v  -0.9000 0.7965 -0.5000
v  -0.8000 0.4965 -0.5000
v  -0.8000 0.6965 -0.5000
v  -0.5000 0.4965 -0.5000
v  -0.5000 0.6965 -0.5000
v  0.5000 0.4965 -0.5000
v  0.5000 0.6965 -0.5000
v  0.8000 0.4965 -0.5000
v  0.8000 0.6965 -0.5000
v  0.9000 -0.0035 -0.5000
v  0.9000 0.0965 -0.5000
v  0.9000 0.1965 -0.5000
v  0.9000 -0.0035 -0.4000
v  -0.7000 0.6965 0.4000
v  -0.5000 0.6965 0.2000
v  0.5000 0.6965 0.2000
v  -0.9000 0.6965 -0.0000
v  -0.7000 0.7965 0.4000
v  0.7000 0.7965 0.4000
v  0.9000 0.7965 0.4000
v  0.9000 0.7965 0.3000
v  -0.5000 0.7965 0.2000
v  0.5000 0.7965 0.2000
v  -0.9000 0.7965 -0.0000
v  -0.9000 0.7965 -0.1000
v  -0.8000 0.7965 -0.1000
v  -0.5000 0.7965 -0.2000
v  0.5000 0.7965 -0.2000
v  -0.9000 0.7965 -0.4000
v  -0.8000 0.7965 -0.4000
v  -0.7000 0.7965 -0.4000
v  0.7000 0.7965 -0.4000
# 176 vertices

vn -1.0000 0.0000 -0.0000
vn 1.0000 0.0000 -0.0000
vn 0.0000 0.0000 1.0000
vn 0.0000 0.0000 -1.0000
vn 0.0000 -1.0000 -0.0000
vn 0.0000 1.0000 -0.0000
# 6 vertex normals

vt 0.5254 0.5000 0.0000
vt 0.4473 0.5000 0.0000
vt 0.2090 0.5000 0.0000
vt 0.1465 0.5000 0.0000
vt 0.3184 0.5000 0.0000
vt 0.2246 0.5000 0.0000
vt 0.3730 0.5000 0.0000
# 7 texture coords

o lvl2_desk
g lvl2_desk
usemtl lvl2_desk_palette
s 1
f 1/1/1 2/1/1 3/1/1 
f 4/1/1 2/1/1 1/1/1 
f 5/2/1 6/2/1 7/2/1 
f 8/1/1 9/1/1 6/1/1 
f 8/2/1 6/2/1 5/2/1 
f 10/1/1 9/1/1 8/1/1 
f 11/2/1 4/2/1 1/2/1 
f 12/1/1 2/1/1 4/1/1 
f 12/2/1 4/2/1 11/2/1 
f 13/1/1 2/1/1 12/1/1 
f 14/1/1 8/1/1 5/1/1 
f 15/2/1 10/2/1 8/2/1 
f 15/1/1 8/1/1 14/1/1 
f 16/1/1 12/1/1 11/1/1 
f 17/2/1 13/2/1 12/2/1 
f 17/1/1 12/1/1 16/1/1 
f 18/2/1 15/2/1 14/2/1 
f 19/2/1 10/2/1 15/2/1 
f 19/2/1 15/2/1 18/2/1 
f 20/2/1 10/2/1 19/2/1 
f 21/2/1 18/2/1 22/2/1 
f 21/2/1 19/2/1 18/2/1 
f 23/3/1 20/3/1 19/3/1 
f 23/2/1 19/2/1 21/2/1 
f 24/3/1 20/3/1 23/3/1 
f 25/2/1 21/2/1 22/2/1 
f 26/3/1 23/3/1 21/3/1 
f 26/2/1 21/2/1 25/2/1 
f 27/2/1 13/2/1 17/2/1 
f 27/2/1 17/2/1 16/2/1 
f 28/3/1 26/3/1 25/3/1 
f 29/3/1 23/3/1 26/3/1 
f 29/4/1 24/4/1 23/4/1 
f 29/3/1 26/3/1 28/3/1 
f 30/4/1 24/4/1 29/4/1 
f 31/2/1 32/2/1 27/2/1 
f 31/2/1 27/2/1 16/2/1 
f 33/3/1 28/3/1 32/3/1 
f 33/2/1 32/2/1 31/2/1 
f 34/4/1 29/4/1 28/4/1 
f 34/3/1 28/3/1 33/3/1 
f 35/3/1 30/3/1 29/3/1 
f 35/4/1 29/4/1 34/4/1 
f 36/3/1 30/3/1 35/3/1 
f 37/2/1 38/2/1 39/2/1 
f 40/2/1 38/2/1 37/2/1 
f 41/2/1 38/2/1 40/2/1 
f 42/2/1 38/2/1 41/2/1 
f 43/2/1 44/2/1 45/2/1 
f 46/2/1 44/2/1 43/2/1 
f 47/2/1 44/2/1 46/2/1 
f 48/1/1 49/1/1 50/1/1 
f 51/2/1 52/2/1 49/2/1 
f 51/1/1 49/1/1 48/1/1 
f 53/2/1 52/2/1 51/2/1 
f 54/2/1 51/2/1 48/2/1 
f 54/1/1 53/1/1 51/1/1 
f 55/1/1 53/1/1 54/1/1 
f 56/2/1 54/2/1 48/2/1 
f 56/2/1 55/2/1 54/2/1 
f 57/2/1 55/2/1 56/2/1 
f 58/1/2 59/1/2 60/1/2 
f 60/1/2 59/1/2 61/1/2 
f 62/2/2 63/2/2 64/2/2 
f 63/1/2 65/1/2 66/1/2 
f 64/2/2 63/2/2 66/2/2 
f 66/1/2 65/1/2 67/1/2 
f 64/1/2 66/1/2 68/1/2 
f 66/2/2 67/2/2 69/2/2 
f 68/1/2 66/1/2 69/1/2 
f 68/2/2 69/2/2 70/2/2 
f 69/2/2 67/2/2 71/2/2 
f 70/2/2 69/2/2 71/2/2 
f 60/2/2 61/2/2 72/2/2 
f 72/2/2 61/2/2 73/2/2 
f 74/2/2 75/2/2 76/2/2 
f 76/2/2 75/2/2 77/2/2 
f 77/2/2 75/2/2 78/2/2 
f 78/2/2 75/2/2 79/2/2 
f 80/2/2 56/2/2 81/2/2 
f 81/2/2 56/2/2 82/2/2 
f 83/1/2 84/1/2 85/1/2 
f 85/1/2 84/1/2 86/1/2 
f 87/2/2 88/2/2 89/2/2 
f 88/1/2 90/1/2 91/1/2 
f 89/2/2 88/2/2 91/2/2 
f 91/1/2 90/1/2 92/1/2 
f 83/1/2 85/1/2 93/1/2 
f 85/2/2 86/2/2 94/2/2 
f 93/1/2 85/1/2 94/1/2 
f 94/2/2 86/2/2 95/2/2 
f 89/1/2 91/1/2 96/1/2 
f 91/2/2 92/2/2 96/2/2 
f 96/2/2 92/2/2 97/2/2 
f 94/1/2 95/1/2 98/1/2 
f 93/2/2 94/2/2 98/2/2 
f 98/1/2 95/1/2 99/1/2 
f 96/1/2 97/1/2 100/1/2 
f 89/1/2 96/1/2 100/1/2 
f 100/1/2 97/1/2 101/1/2 
f 98/2/2 99/2/2 102/2/2 
f 93/2/2 98/2/2 102/2/2 
f 102/2/2 99/2/2 103/2/2 
f 103/2/2 99/2/2 104/2/2 
f 100/2/2 101/2/2 105/2/2 
f 102/3/2 103/3/2 106/3/2 
f 103/4/2 104/4/2 107/4/2 
f 106/3/2 103/3/2 107/3/2 
f 104/2/2 105/2/2 108/2/2 
f 107/4/2 104/4/2 108/4/2 
f 105/2/2 101/2/2 109/2/2 
f 108/2/2 105/2/2 109/2/2 
f 110/2/3 11/2/3 1/2/3 
f 110/1/3 16/1/3 11/1/3 
f 111/2/3 31/2/3 16/2/3 
f 111/1/3 16/1/3 110/1/3 
f 58/1/3 1/1/3 3/1/3 
f 60/2/3 110/2/3 1/2/3 
f 60/1/3 1/1/3 58/1/3 
f 60/2/3 111/2/3 110/2/3 
f 72/2/3 31/2/3 111/2/3 
f 72/2/3 111/2/3 60/2/3 
f 43/2/3 31/2/3 72/2/3 
f 112/2/3 43/2/3 45/2/3 
f 113/2/3 43/2/3 112/2/3 
f 114/1/3 113/1/3 112/1/3 
f 115/2/3 43/2/3 113/2/3 
f 115/1/3 113/1/3 114/1/3 
f 116/2/3 43/2/3 115/2/3 
f 117/2/3 115/2/3 114/2/3 
f 118/1/3 116/1/3 115/1/3 
f 118/2/3 115/2/3 117/2/3 
f 119/2/3 31/2/3 43/2/3 
f 119/2/3 43/2/3 116/2/3 
f 120/2/3 31/2/3 119/2/3 
f 83/1/3 118/1/3 117/1/3 
f 93/1/3 116/1/3 118/1/3 
f 93/1/3 118/1/3 83/1/3 
f 93/2/3 119/2/3 116/2/3 
f 102/3/3 120/3/3 119/3/3 
f 102/2/3 119/2/3 93/2/3 
f 106/3/3 120/3/3 102/3/3 
f 121/2/3 25/2/3 22/2/3 
f 121/3/3 28/3/3 25/3/3 
f 122/3/3 28/3/3 121/3/3 
f 123/2/3 122/2/3 121/2/3 
f 124/2/3 123/2/3 121/2/3 
f 74/2/3 121/2/3 22/2/3 
f 74/2/3 124/2/3 121/2/3 
f 76/2/3 124/2/3 74/2/3 
f 125/2/3 37/2/3 39/2/3 
f 126/2/3 125/2/3 39/2/3 
f 80/2/3 126/2/3 39/2/3 
f 81/2/3 126/2/3 80/2/3 
f 62/2/3 5/2/3 7/2/3 
f 64/1/3 14/1/3 5/1/3 
f 64/2/3 5/2/3 62/2/3 
f 68/2/3 18/2/3 14/2/3 
f 68/1/3 14/1/3 64/1/3 
f 70/2/3 18/2/3 68/2/3 
f 127/1/3 48/1/3 50/1/3 
f 128/2/3 56/2/3 48/2/3 
f 128/1/3 48/1/3 127/1/3 
f 128/2/3 82/2/3 56/2/3 
f 129/2/3 82/2/3 128/2/3 
f 87/2/3 128/2/3 127/2/3 
f 89/1/3 129/1/3 128/1/3 
f 89/2/3 128/2/3 87/2/3 
f 100/2/3 82/2/3 129/2/3 
f 100/1/3 129/1/3 89/1/3 
f 105/2/3 82/2/3 100/2/3 
f 2/1/4 13/1/4 130/1/4 
f 13/2/4 27/2/4 131/2/4 
f 130/1/4 13/1/4 131/1/4 
f 2/1/4 130/1/4 59/1/4 
f 130/2/4 131/2/4 61/2/4 
f 59/1/4 130/1/4 61/1/4 
f 131/2/4 27/2/4 73/2/4 
f 61/2/4 131/2/4 73/2/4 
f 44/2/4 47/2/4 132/2/4 
f 132/2/4 47/2/4 133/2/4 
f 133/2/4 47/2/4 134/2/4 
f 132/1/4 133/1/4 135/1/4 
f 133/2/4 134/2/4 136/2/4 
f 135/1/4 133/1/4 136/1/4 
f 136/2/4 134/2/4 137/2/4 
f 135/2/4 136/2/4 138/2/4 
f 136/1/4 137/1/4 139/1/4 
f 138/2/4 136/2/4 139/2/4 
f 137/2/4 134/2/4 140/2/4 
f 139/1/4 137/1/4 140/1/4 
f 140/2/4 134/2/4 141/2/4 
f 138/1/4 139/1/4 84/1/4 
f 139/2/4 140/2/4 86/2/4 
f 84/1/4 139/1/4 86/1/4 
f 140/1/4 141/1/4 95/1/4 
f 86/2/4 140/2/4 95/2/4 
f 141/2/4 134/2/4 99/2/4 
f 95/1/4 141/1/4 99/1/4 
f 99/2/4 134/2/4 104/2/4 
f 10/2/4 20/2/4 142/2/4 
f 20/3/4 24/3/4 142/3/4 
f 24/4/4 30/4/4 143/4/4 
f 142/3/4 24/3/4 143/3/4 
f 30/3/4 36/3/4 144/3/4 
f 143/4/4 30/4/4 144/4/4 
f 144/3/4 36/3/4 145/3/4 
f 9/1/4 10/1/4 65/1/4 
f 142/2/4 143/2/4 67/2/4 
f 65/1/4 10/1/4 67/1/4 
f 10/2/4 142/2/4 67/2/4 
f 67/2/4 143/2/4 71/2/4 
f 143/3/4 144/3/4 146/3/4 
f 71/2/4 143/2/4 146/2/4 
f 144/2/4 145/2/4 147/2/4 
f 146/3/4 144/3/4 147/3/4 
f 71/2/4 146/2/4 148/2/4 
f 146/5/4 147/5/4 148/5/4 
f 147/2/4 145/2/4 149/2/4 
f 148/5/4 147/5/4 149/5/4 
f 71/2/4 148/2/4 75/2/4 
f 148/2/4 149/2/4 75/2/4 
f 149/2/4 145/2/4 79/2/4 
f 75/2/4 149/2/4 79/2/4 
f 79/2/4 145/2/4 42/2/4 
f 38/2/4 42/2/4 150/2/4 
f 42/2/4 145/2/4 151/2/4 
f 150/2/4 42/2/4 151/2/4 
f 38/2/4 150/2/4 57/2/4 
f 150/5/4 151/5/4 152/5/4 
f 57/2/4 150/2/4 152/2/4 
f 151/2/4 145/2/4 153/2/4 
f 152/5/4 151/5/4 153/5/4 
f 52/2/4 53/2/4 154/2/4 
f 53/1/4 55/1/4 155/1/4 
f 154/2/4 53/2/4 155/2/4 
f 155/1/4 55/1/4 156/1/4 
f 154/1/4 155/1/4 90/1/4 
f 155/2/4 156/2/4 92/2/4 
f 90/1/4 155/1/4 92/1/4 
f 156/1/4 55/1/4 97/1/4 
f 92/2/4 156/2/4 97/2/4 
f 55/2/4 57/2/4 101/2/4 
f 97/1/4 55/1/4 101/1/4 
f 57/2/4 152/2/4 101/2/4 
f 152/2/4 153/2/4 101/2/4 
f 153/2/4 145/2/4 109/2/4 
f 101/2/4 153/2/4 109/2/4 
f 2/1/5 58/1/5 3/1/5 
f 59/1/5 58/1/5 2/1/5 
f 44/2/5 112/2/5 45/2/5 
f 132/1/5 114/1/5 112/1/5 
f 132/2/5 112/2/5 44/2/5 
f 135/2/5 117/2/5 114/2/5 
f 135/1/5 114/1/5 132/1/5 
f 138/1/5 83/1/5 117/1/5 
f 138/2/5 117/2/5 135/2/5 
f 84/1/5 83/1/5 138/1/5 
f 6/2/5 62/2/5 7/2/5 
f 63/2/5 62/2/5 6/2/5 
f 49/1/5 127/1/5 50/1/5 
f 157/2/5 87/2/5 127/2/5 
f 157/1/5 127/1/5 49/1/5 
f 88/2/5 87/2/5 157/2/5 
f 9/1/5 63/1/5 6/1/5 
f 65/1/5 63/1/5 9/1/5 
f 52/2/5 157/2/5 49/2/5 
f 154/1/5 88/1/5 157/1/5 
f 154/2/5 157/2/5 52/2/5 
f 90/1/5 88/1/5 154/1/5 
f 18/2/5 74/2/5 22/2/5 
f 70/2/5 74/2/5 18/2/5 
f 56/2/5 80/2/5 39/2/5 
f 71/2/5 74/2/5 70/2/5 
f 75/2/5 74/2/5 71/2/5 
f 38/2/5 56/2/5 39/2/5 
f 57/2/5 56/2/5 38/2/5 
f 158/2/5 43/2/5 72/2/5 
f 46/2/5 43/2/5 158/2/5 
f 73/2/5 158/2/5 72/2/5 
f 47/6/5 46/6/5 158/6/5 
f 159/6/5 47/6/5 158/6/5 
f 159/6/5 134/6/5 47/6/5 
f 160/6/5 134/6/5 159/6/5 
f 32/2/5 73/2/5 27/2/5 
f 161/2/5 73/2/5 32/2/5 
f 28/3/5 161/3/5 32/3/5 
f 122/2/5 73/2/5 161/2/5 
f 122/3/5 161/3/5 28/3/5 
f 123/2/5 158/2/5 73/2/5 
f 123/2/5 73/2/5 122/2/5 
f 123/6/5 159/6/5 158/6/5 
f 124/7/5 160/7/5 159/7/5 
f 124/6/5 159/6/5 123/6/5 
f 76/7/5 160/7/5 124/7/5 
f 37/7/5 160/7/5 76/7/5 
f 125/6/5 134/6/5 160/6/5 
f 125/7/5 160/7/5 37/7/5 
f 126/2/5 104/2/5 134/2/5 
f 126/6/5 134/6/5 125/6/5 
f 81/2/5 104/2/5 126/2/5 
f 77/7/5 37/7/5 76/7/5 
f 40/7/5 37/7/5 77/7/5 
f 82/2/5 104/2/5 81/2/5 
f 105/2/5 104/2/5 82/2/5 
f 78/6/5 40/6/5 77/6/5 
f 41/6/5 40/6/5 78/6/5 
f 79/2/5 41/2/5 78/2/5 
f 42/2/5 41/2/5 79/2/5 
f 31/2/6 120/2/6 162/2/6 
f 162/2/6 120/2/6 163/2/6 
f 120/3/6 106/3/6 164/3/6 
f 163/2/6 120/2/6 164/2/6 
f 164/3/6 106/3/6 107/3/6 
f 163/2/6 164/2/6 165/2/6 
f 164/4/6 107/4/6 165/4/6 
f 165/4/6 107/4/6 108/4/6 
f 162/6/6 163/6/6 166/6/6 
f 166/6/6 163/6/6 167/6/6 
f 31/2/6 162/2/6 33/2/6 
f 33/2/6 162/2/6 168/2/6 
f 33/3/6 168/3/6 34/3/6 
f 168/2/6 162/2/6 169/2/6 
f 34/3/6 168/3/6 169/3/6 
f 169/2/6 162/2/6 170/2/6 
f 162/6/6 166/6/6 171/6/6 
f 166/7/6 167/7/6 171/7/6 
f 167/6/6 163/6/6 172/6/6 
f 171/7/6 167/7/6 172/7/6 
f 34/4/6 169/4/6 35/4/6 
f 169/3/6 170/3/6 173/3/6 
f 35/4/6 169/4/6 173/4/6 
f 170/2/6 162/2/6 174/2/6 
f 173/3/6 170/3/6 174/3/6 
f 162/6/6 171/6/6 175/6/6 
f 174/2/6 162/2/6 175/2/6 
f 171/6/6 172/6/6 175/6/6 
f 163/2/6 165/2/6 176/2/6 
f 175/6/6 172/6/6 176/6/6 
f 165/2/6 108/2/6 176/2/6 
f 172/6/6 163/6/6 176/6/6 
f 35/3/6 173/3/6 36/3/6 
f 173/2/6 174/2/6 145/2/6 
f 36/3/6 173/3/6 145/3/6 
f 174/2/6 175/2/6 145/2/6 
f 175/2/6 176/2/6 145/2/6 
f 176/2/6 108/2/6 109/2/6 
f 145/2/6 176/2/6 109/2/6 
# 0 polygons - 348 triangles

